<svg width="13" height="12" viewBox="0 0 13 12" fill="none" xmlns="http://www.w3.org/2000/svg">
<path d="M12.3516 6.63477L7.97656 11.0098C7.8125 11.1738 7.59375 11.2559 7.375 11.2559C7.12891 11.2559 6.91016 11.1738 6.74609 11.0098C6.39062 10.6816 6.39062 10.1074 6.74609 9.7793L9.61719 6.88086H1.25C0.757812 6.88086 0.375 6.49805 0.375 6.00586C0.375 5.54102 0.757812 5.13086 1.25 5.13086H9.61719L6.74609 2.25977C6.39062 1.93164 6.39062 1.35742 6.74609 1.0293C7.07422 0.673828 7.64844 0.673828 7.97656 1.0293L12.3516 5.4043C12.707 5.73242 12.707 6.30664 12.3516 6.63477Z" fill="#9ABB0C"/>
</svg>
