<svg width="17" height="15" viewBox="0 0 17 15" fill="none" xmlns="http://www.w3.org/2000/svg">
<path d="M0 1.70801C0 1.07715 0.519531 0.520508 1.1875 0.520508H15.4375C16.0684 0.520508 16.625 1.07715 16.625 1.70801C16.625 2.37598 16.0684 2.89551 15.4375 2.89551H1.1875C0.519531 2.89551 0 2.37598 0 1.70801ZM0 7.64551C0 7.01465 0.519531 6.45801 1.1875 6.45801H15.4375C16.0684 6.45801 16.625 7.01465 16.625 7.64551C16.625 8.31348 16.0684 8.83301 15.4375 8.83301H1.1875C0.519531 8.83301 0 8.31348 0 7.64551ZM15.4375 14.7705H1.1875C0.519531 14.7705 0 14.251 0 13.583C0 12.9521 0.519531 12.3955 1.1875 12.3955H15.4375C16.0684 12.3955 16.625 12.9521 16.625 13.583C16.625 14.251 16.0684 14.7705 15.4375 14.7705Z" fill="white"/>
</svg>
