<svg width="30" height="30" viewBox="0 0 30 30" fill="none" xmlns="http://www.w3.org/2000/svg">
<path d="M19.1016 17.6484C19.457 17.9766 19.457 18.5508 19.1016 18.8789C18.9375 19.043 18.7188 19.125 18.5 19.125C18.2539 19.125 18.0352 19.043 17.8711 18.8789L15 16.0078L12.1016 18.8789C11.9375 19.043 11.7188 19.125 11.5 19.125C11.2539 19.125 11.0352 19.043 10.8711 18.8789C10.5156 18.5508 10.5156 17.9766 10.8711 17.6484L13.7422 14.75L10.8711 11.8789C10.5156 11.5508 10.5156 10.9766 10.8711 10.6484C11.1992 10.293 11.7734 10.293 12.1016 10.6484L15 13.5195L17.8711 10.6484C18.1992 10.293 18.7734 10.293 19.1016 10.6484C19.457 10.9766 19.457 11.5508 19.1016 11.8789L16.2305 14.7773L19.1016 17.6484Z" fill="#3C3C3C" fill-opacity="0.5"/>
</svg>
