<svg width="28" height="22" viewBox="0 0 28 22" fill="none" xmlns="http://www.w3.org/2000/svg">
<path d="M25.375 0.754883C26.7969 0.754883 28 1.95801 28 3.37988C28 4.25488 27.5625 5.02051 26.9062 5.5127L15.0391 14.4268C14.3828 14.9189 13.5625 14.9189 12.9062 14.4268L1.03906 5.5127C0.382812 5.02051 0 4.25488 0 3.37988C0 1.95801 1.14844 0.754883 2.625 0.754883H25.375ZM11.8672 15.8486C13.125 16.7783 14.8203 16.7783 16.0781 15.8486L28 6.87988V18.2549C28 20.2236 26.4141 21.7549 24.5 21.7549H3.5C1.53125 21.7549 0 20.2236 0 18.2549V6.87988L11.8672 15.8486Z" fill="#9ABB0C"/>
</svg>
