<svg width="29" height="29" viewBox="0 0 29 29" fill="none" xmlns="http://www.w3.org/2000/svg">
<path d="M19.75 14.2549C19.75 15.5127 19.6406 16.6611 19.5312 17.7549H9.41406C9.30469 16.6611 9.19531 15.5127 9.19531 14.2549C9.19531 13.0518 9.30469 11.9033 9.41406 10.7549H19.5312C19.6406 11.9033 19.75 13.0518 19.75 14.2549ZM28.0078 10.7549C28.3359 11.9033 28.5 13.0518 28.5 14.2549C28.5 15.5127 28.3359 16.6611 28.0078 17.7549H21.2812C21.3906 16.6611 21.5 15.458 21.5 14.2549C21.5 13.0518 21.3906 11.9033 21.2812 10.7549H28.0078ZM27.4609 9.00488H21.0625C20.5156 5.55957 19.4219 2.60645 18.0547 0.74707C22.3203 1.89551 25.8203 4.95801 27.4609 9.00488ZM19.3125 9.00488H9.63281C9.96094 7.03613 10.5078 5.28613 11.1094 3.86426C11.7109 2.55176 12.3125 1.62207 12.9688 1.02051C13.5703 0.473633 14.0625 0.254883 14.5 0.254883C14.8828 0.254883 15.375 0.473633 15.9766 1.02051C16.6328 1.62207 17.2344 2.55176 17.8359 3.86426C18.4375 5.28613 18.9844 7.03613 19.3125 9.00488ZM1.48438 9.00488C3.125 4.95801 6.625 1.89551 10.8906 0.74707C9.52344 2.60645 8.42969 5.55957 7.88281 9.00488H1.48438ZM7.66406 10.7549C7.55469 11.9033 7.44531 13.0518 7.44531 14.2549C7.44531 15.458 7.55469 16.6611 7.66406 17.7549H0.9375C0.609375 16.6611 0.5 15.5127 0.5 14.2549C0.5 13.0518 0.609375 11.9033 0.9375 10.7549H7.66406ZM11.1094 24.7002C10.5078 23.2783 9.96094 21.5283 9.63281 19.5049H19.3125C18.9844 21.5283 18.4375 23.2783 17.8359 24.7002C17.2344 26.0127 16.6328 26.9424 15.9766 27.5439C15.375 28.0908 14.8828 28.2549 14.4453 28.2549C14.0625 28.2549 13.5703 28.0908 12.9688 27.5439C12.3125 26.9424 11.7109 26.0127 11.1094 24.7002ZM10.8906 27.8174C6.625 26.6689 3.125 23.6064 1.48438 19.5049H7.88281C8.42969 23.0049 9.52344 25.958 10.8906 27.8174ZM18.0547 27.8174C19.4219 25.958 20.5156 23.0049 21.0625 19.5049H27.4609C25.8203 23.6064 22.3203 26.6689 18.0547 27.8174Z" fill="#9ABB0C"/>
</svg>
