<svg width="80" height="80" viewBox="0 0 80 80" fill="none" xmlns="http://www.w3.org/2000/svg">
<path d="M40 0C40.4031 0 40.8048 0.00671151 41.2051 0.0185547C20.9442 0.625327 4.70605 17.2396 4.70605 37.6475C4.70627 58.439 21.561 75.2937 42.3525 75.2939C62.7607 75.2939 79.3742 59.0552 79.9805 38.7939C79.9923 39.1945 80 39.5965 80 40C80 62.0914 62.0914 80 40 80C17.9086 80 0 62.0914 0 40C0 17.9086 17.9086 0 40 0Z" fill="white"/>
<path d="M77.9273 11.907C77.6639 14.3295 76.8739 17.8948 75.3397 20.7079C74.5713 22.1169 73.5985 23.3708 72.3805 24.1844C71.1491 25.0068 69.6894 25.3632 68.0042 25.0055C67.7243 24.9461 67.5424 24.6573 67.5982 24.3602C67.6542 24.0631 67.9263 23.8701 68.2062 23.9293C69.6234 24.2301 70.8144 23.9326 71.829 23.255C72.8571 22.5683 73.7266 21.475 74.4449 20.158C75.7492 17.7663 76.4947 14.745 76.8123 12.4623C73.0467 12.9077 70.3334 13.6399 68.4244 14.5226C66.4073 15.4554 65.326 16.5387 64.8167 17.5928C63.9171 19.4549 64.6959 21.5344 65.957 23.1124C66.8763 21.5733 68.0041 19.9566 69.2909 18.5908C69.4929 18.3764 69.8202 18.3764 70.0222 18.5908C70.2241 18.8051 70.2241 19.1526 70.0222 19.3669C68.6391 20.8348 67.4325 22.6313 66.4791 24.3034C65.4919 26.0348 64.7877 27.6117 64.448 28.513L63.4512 28.3094C63.4512 27.7684 63.271 27.1141 62.9371 26.383C62.6062 25.6585 62.1424 24.8964 61.616 24.1522C60.5627 22.6631 59.2931 21.2896 58.4507 20.485C58.2385 20.2822 58.2213 19.9342 58.4124 19.7089C58.6034 19.4836 58.9313 19.4654 59.1436 19.6681C60.0249 20.51 61.3409 21.9361 62.4422 23.493C62.9931 24.2718 63.499 25.0951 63.8683 25.9038C63.9686 26.1235 64.0588 26.3456 64.139 26.5674C64.4741 25.8372 64.8966 24.9911 65.3934 24.0965C63.912 22.366 62.6478 19.6753 63.8956 17.0922C64.5498 15.7378 65.8608 14.5109 68.0123 13.516C70.1639 12.5212 73.1952 11.7403 77.3617 11.2981L78 11.2295L77.9273 11.907ZM52.5555 14.0402C53.7983 13.9461 55.7827 13.9742 57.7296 14.364C59.6529 14.749 61.6593 15.5104 62.8139 16.9807C62.9966 17.2134 62.9674 17.5595 62.7482 17.7536C62.5289 17.9475 62.2029 17.9165 62.02 17.6839C61.1061 16.5198 59.4065 15.8176 57.5377 15.4434C55.9317 15.1219 54.2887 15.059 53.118 15.1068C53.2201 18.8403 54.4211 21.1427 55.849 22.525C57.3578 23.9854 59.1676 24.4674 60.3485 24.4674C60.6341 24.4674 60.8656 24.7131 60.8656 25.0162C60.8656 25.3194 60.6341 25.5651 60.3485 25.5651C58.9439 25.5651 56.8753 25.0043 55.1521 23.3364C53.4131 21.6531 52.0747 18.8897 52.0747 14.588V14.0767L52.5555 14.0402ZM55.846 16.9442C56.0479 16.7299 56.3753 16.7299 56.5772 16.9442L58.1286 18.5908C58.3305 18.8051 58.3305 19.1526 58.1286 19.3669C57.9266 19.5812 57.5993 19.5812 57.3973 19.3669L55.846 17.7203C55.644 17.506 55.644 17.1586 55.846 16.9442ZM72.3936 15.2977C72.5955 15.0833 72.9229 15.0833 73.1248 15.2977C73.3268 15.512 73.3268 15.8594 73.1248 16.0738L71.0564 18.2692C70.8544 18.4835 70.5271 18.4835 70.3251 18.2692C70.1232 18.0549 70.1232 17.7074 70.3251 17.4931L72.3936 15.2977Z" fill="white"/>
<path d="M53.7851 31.0656C54.4695 31.0656 55.1539 31.4389 55.5272 32.0611L55.6516 32.2477C55.8383 32.5588 56.2738 32.7455 56.7094 32.6211L57.7049 32.3722C57.8915 32.31 58.0782 32.31 58.2648 32.31C57.6426 35.2965 55.9627 37.9096 53.6606 39.7762L53.5362 39.714C52.9762 39.2785 52.2918 39.2162 51.6696 39.4029L51.483 39.4651C50.3008 39.9629 48.932 39.3407 48.3721 38.1585L47.9987 37.4119C47.501 36.2297 47.9365 34.8609 49.0565 34.2387L51.3586 32.9321C51.483 32.8699 51.6074 32.7455 51.6696 32.6211L52.043 32.0611C52.4163 31.4389 53.1007 31.0656 53.7851 31.0656ZM53.7851 32.4212C53.5736 32.4212 53.3319 32.5477 53.2053 32.7587L53.1887 32.7859L53.1708 32.813L52.8187 33.3412C52.6318 33.6588 52.349 33.9332 52.0271 34.1097L52.0277 34.111L49.7256 35.4176L49.7204 35.4209L49.7151 35.4235C49.2379 35.6886 49.0116 36.2905 49.2391 36.8619L49.5913 37.5655L49.5972 37.578C49.8921 38.2006 50.5372 38.3921 50.9568 38.2154L51.0051 38.1956L51.0541 38.179L51.2606 38.1102L51.2805 38.1042C51.9573 37.9013 52.7307 37.8799 53.4667 38.1459C54.6998 36.9898 55.6862 35.583 56.3301 34.0124C55.6069 33.9804 54.9215 33.6175 54.5244 32.999L54.3993 32.813L54.3815 32.7859L54.3649 32.7587C54.2383 32.5477 53.9966 32.4212 53.7851 32.4212ZM38.6659 35.3587C38.7904 34.7987 39.3504 34.4876 39.8481 34.6121L41.8391 35.1098C42.3991 35.2342 42.7102 35.7942 42.5857 36.292C42.4613 36.8519 41.9013 37.163 41.4036 37.0386L39.4126 36.5408C38.8526 36.4164 38.5415 35.8564 38.6659 35.3587ZM44.8878 32.1233C45.0123 31.5633 45.5722 31.2522 46.07 31.3767C46.6299 31.5011 46.941 32.0611 46.8166 32.5588L46.3188 34.5498C46.1944 35.1098 45.6344 35.4209 45.1367 35.2965C44.5767 35.172 44.2656 34.6121 44.3901 34.1143L44.8878 32.1233ZM36.2143 30.1072C37.6357 28.6857 39.8945 29.1647 40.7364 30.8074L41.3586 31.9896L41.3797 32.0293L41.3976 32.0704C41.3976 32.0704 41.4127 32.1002 41.4711 32.1352C41.5313 32.1713 41.6166 32.1988 41.7147 32.1988V33.5543C41.0303 33.5543 40.4081 33.181 40.1592 32.6211L39.537 31.4389C39.1015 30.5678 37.9193 30.319 37.1727 31.0656L36.2394 31.9989C35.8661 32.3722 35.3684 32.5588 34.8706 32.4344L32.8796 32.0611C32.7552 31.2522 32.6307 30.4434 32.6307 29.5723C32.6307 22.4794 38.4793 16.6309 45.5722 16.6309C47.1277 16.6309 48.5587 16.942 49.8653 17.3775L48.8698 19.9284C48.6832 20.364 48.3098 20.7373 47.8743 20.7995L46.8166 21.1106C45.7589 21.3595 45.3233 22.6039 45.9455 23.4127L46.941 24.7815C47.3143 25.2793 47.3766 25.9637 47.0032 26.5236L46.3188 27.5191C45.8833 28.2035 45.0745 28.5768 44.2656 28.5768V27.2213C44.6929 27.2213 45.0294 27.02 45.1751 26.791L45.2016 26.7513L45.876 25.7697C45.8875 25.7521 45.8929 25.7394 45.8952 25.7307C45.8978 25.7213 45.8991 25.7109 45.8985 25.6989C45.8972 25.6736 45.887 25.6352 45.8568 25.595L45.8449 25.5791L44.8494 24.2103C43.6525 22.6129 44.5159 20.3127 46.434 19.81L47.4917 19.4989L47.5765 19.4737C47.5793 19.4701 47.5833 19.4669 47.5864 19.4625C47.5992 19.4442 47.6098 19.4228 47.6195 19.4016L48.059 18.2757C47.2629 18.095 46.4352 17.9864 45.5722 17.9864C39.228 17.9864 33.9863 23.2281 33.9863 29.5723C33.9863 30.0216 34.0266 30.4555 34.0843 30.9074L35.1201 31.102L35.1599 31.1093L35.1791 31.1139C35.1956 31.1069 35.2332 31.0882 35.281 31.0404L36.2143 30.1072ZM44.1412 28.5768C43.1457 28.5768 42.3991 29.5723 42.7102 30.5056L43.0835 31.75C43.3323 32.6833 42.6479 33.5543 41.7147 33.5543V32.1988C41.7343 32.1988 41.7437 32.1945 41.7484 32.1921C41.7546 32.189 41.7613 32.1842 41.767 32.1769C41.7724 32.1698 41.7764 32.1618 41.7782 32.1531C41.7795 32.1466 41.7808 32.1313 41.7742 32.1041L41.4115 30.8948C40.8266 29.0517 42.2822 27.2213 44.1412 27.2213V28.5768ZM44.2656 27.2213V28.5768H44.1412V27.2213H44.2656ZM49.6786 21.1728C49.9275 20.6751 50.5497 20.4884 51.0475 20.7373C51.5452 20.9862 51.7319 21.6084 51.483 22.1061L50.4875 24.0971C50.2386 24.5948 49.6164 24.7815 49.1187 24.5326C48.6209 24.2838 48.4343 23.6616 48.6831 23.1638L49.6786 21.1728Z" fill="white"/>
<path d="M29.6654 29.5931C29.6654 20.8203 36.7583 13.6651 45.5934 13.6651C46.7969 13.6651 47.9701 13.7998 49.0984 14.0549L49.7611 12.8187C48.4256 12.4862 47.0295 12.3096 45.5934 12.3096C36.0062 12.3096 28.3098 20.0751 28.3098 29.5931C28.3098 39.1768 36.0097 46.8767 45.5934 46.8767C55.1114 46.8767 62.8769 39.1803 62.8769 29.5931H61.5213C61.5213 38.4282 54.3662 45.5211 45.5934 45.5211C36.7583 45.5211 29.6654 38.4282 29.6654 29.5931Z" fill="white"/>
<path d="M50.9872 48.7998C52.818 47.3769 55.3596 47.8133 56.6687 49.6752L56.6789 49.6878L56.6871 49.7004C57.9726 51.5872 57.6897 54.1865 55.8164 55.5867L49.1969 60.5766L49.1847 60.585C47.9494 61.5014 46.4906 61.9999 44.9174 61.9999H21.8285C20.1406 61.9999 19 60.5895 19 59.0945V54.2578C19 52.8836 20.037 51.2517 21.8285 51.2517H21.8673L29.8596 51.2874L31.519 49.8809L31.5497 49.8536L31.5824 49.8284C32.944 48.7628 34.7079 48.0776 36.5302 48.0776V50.2273C35.2059 50.2273 33.8815 50.7311 32.8515 51.5372L30.5953 53.4517L21.8285 53.4013C21.4361 53.4013 21.0928 53.8044 21.0927 54.2578V59.0945C21.0927 59.4976 21.387 59.8503 21.8285 59.8503H44.9174C46.0456 59.8503 47.0756 59.4976 47.9585 58.8426L54.58 53.8548C55.4628 53.1998 55.6591 51.9402 54.9724 50.9326C54.3348 50.0258 53.1085 49.8243 52.2257 50.5296L46.3399 54.9632H40.454C40.0616 54.9632 39.7183 54.5601 39.7183 54.2075C39.7184 53.8044 40.0126 53.4517 40.454 53.4517H44.2308C45.0155 53.4517 45.7513 52.8975 45.8494 52.0914C46.0455 51.0838 45.2608 50.2273 44.3289 50.2273V48.0776C46.0269 48.0776 47.5985 49.3401 47.9135 51.109L50.9872 48.7956V48.7998ZM44.3289 48.0776V50.2273H36.5302V48.0776H44.3289Z" fill="white"/>
</svg>
