<svg width="80" height="80" viewBox="0 0 80 80" fill="none" xmlns="http://www.w3.org/2000/svg">
<path d="M40 0C40.4031 0 40.8048 0.00671151 41.2051 0.0185547C20.9442 0.625327 4.70605 17.2396 4.70605 37.6475C4.70627 58.439 21.561 75.2937 42.3525 75.2939C62.7607 75.2939 79.3742 59.0552 79.9805 38.7939C79.9923 39.1945 80 39.5965 80 40C80 62.0914 62.0914 80 40 80C17.9086 80 0 62.0914 0 40C0 17.9086 17.9086 0 40 0Z" fill="white"/>
<path d="M24.7443 21.1381C31.5374 20.1677 36.3779 24.5292 39.3881 27.3758L39.4244 27.4072L39.5069 27.3461C42.5179 24.4949 46.1784 20.8843 52.9245 21.1233L53.0219 21.1266L53.1176 21.1398C56.6583 21.6738 59.5774 23.2367 61.6094 25.6118C62.0977 26.3685 63.2356 28.219 63.8834 29.5706L62.6738 31.4567C61.6281 26.883 58.1416 23.6071 52.8651 22.8114C46.8334 22.5976 43.6356 25.767 40.5861 28.6514L39.3468 29.5772L38.2379 28.6151C35.1884 25.7308 30.8977 21.9666 24.9836 22.8114C18.6075 23.7729 15.69 28.3568 15.6898 34.4749V34.9122C15.6898 35.6768 15.8284 36.4331 16.0693 37.1746H22.8714L24.7823 39.7209L27.5711 33.2175L30.1619 40.1334L31.2213 38.0195H33.756L36.0563 33.4172C36.2651 33 36.7728 32.8307 37.19 33.0393C37.6073 33.2479 37.7764 33.7556 37.5679 34.1729L35.0332 39.2423L34.7989 39.7093H32.2642L29.9424 44.3546L27.4655 37.7505L25.1849 43.0757L22.0265 38.8644H16.8004C17.962 41.0229 19.8559 42.9846 21.604 44.5278L39.3468 61.6765L53.8057 48.3365L55.9922 48.617L39.3204 64L20.4291 45.7424C19.008 44.4828 17.4409 42.9114 16.2162 41.1384C14.9833 39.3533 14.0001 37.2248 14 34.9122V34.4749C14.0001 31.1607 14.7896 28.0954 16.5941 25.6943C18.4207 23.2639 21.1649 21.6793 24.7311 21.1414L24.7443 21.1381Z" fill="white"/>
<path d="M65.0451 25.9594C65.4195 25.8018 65.8701 25.7296 66.324 25.8588C66.7952 25.993 67.1713 26.3165 67.4164 26.7664C68.113 28.045 68.1307 29.4774 67.8719 30.7252C67.7751 31.1926 67.8851 31.7882 68.1722 32.2648C68.4601 32.7428 68.8234 32.9511 69.1458 32.9513H70.5485C71.3959 32.9513 72.1873 33.3749 72.6574 34.08L73.4809 35.316C73.832 35.8427 73.9748 36.4824 73.8785 37.1081L72.3719 46.897C72.2898 47.4295 72.04 47.9219 71.6591 48.3029L70.8554 49.1066C70.3801 49.5818 69.7355 49.8491 69.0633 49.8491H61.8768C61.3287 49.849 60.7955 49.6713 60.3569 49.3425L58.012 47.5851L57.3371 48.2617C56.8618 48.7369 56.2172 49.0042 55.545 49.0042H53.5648C52.8926 49.0042 52.248 48.737 51.7727 48.2617L51.073 47.562C50.5977 47.0867 50.3305 46.442 50.3304 45.7699V38.8655H41.0366C40.57 38.8655 40.1917 38.4872 40.1917 38.0206C40.1917 37.554 40.57 37.1757 41.0366 37.1757H50.3304V36.1856C50.3305 35.5135 50.5977 34.8688 51.073 34.3935L51.7727 33.6938C52.248 33.2186 52.8926 32.9513 53.5648 32.9513H55.545C56.2172 32.9513 56.8618 33.2186 57.3371 33.6938L58.2843 34.6411H58.3305C58.4839 34.6411 58.6157 34.6027 58.715 34.5404C61.4614 32.8139 62.8467 30.0337 63.456 27.8175C63.6886 26.9715 64.3137 26.2677 65.0451 25.9594ZM65.7002 27.5172C65.4636 27.6172 65.1867 27.9 65.0864 28.2647C64.4113 30.7205 62.8424 33.94 59.6144 35.9695C59.3525 36.1341 59.0669 36.2327 58.7794 36.2846V46.0455L61.3702 47.991C61.5162 48.1005 61.6942 48.1592 61.8768 48.1594H69.0633C69.2873 48.1593 69.5023 48.0702 69.6607 47.9118L70.4643 47.1082C70.5913 46.9812 70.6746 46.817 70.7019 46.6395L72.2086 36.8506C72.2406 36.6422 72.1919 36.4288 72.0749 36.2533L71.2515 35.0173C71.0948 34.7823 70.831 34.6411 70.5485 34.6411H69.1458C68.036 34.6409 67.2025 33.9288 66.725 33.1361C66.2469 32.3422 66.0231 31.3169 66.2167 30.3819C66.4256 29.375 66.3752 28.3869 65.9329 27.575C65.9025 27.5191 65.8784 27.496 65.8702 27.4892C65.8668 27.4863 65.8646 27.4848 65.8636 27.4842C65.8629 27.484 65.8098 27.471 65.7002 27.5172ZM52.0202 45.7699C52.0203 45.9939 52.1094 46.2089 52.2677 46.3673L52.9674 47.0669C53.1258 47.2253 53.3408 47.3144 53.5648 47.3145H55.545C55.769 47.3144 55.984 47.2253 56.1424 47.0669L57.0896 46.1197V35.8358L56.1424 34.8886C55.984 34.7302 55.769 34.6411 55.545 34.6411H53.5648C53.3408 34.6411 53.1258 34.7302 52.9674 34.8886L52.2677 35.5883C52.1094 35.7466 52.0203 35.9616 52.0202 36.1856V45.7699Z" fill="white"/>
</svg>
