<svg width="37" height="19" viewBox="0 0 37 19" fill="none" xmlns="http://www.w3.org/2000/svg">
<path d="M13.1144 6.61412C13.0646 6.78462 13.0149 6.9267 12.9794 7.06878C12.8941 7.37425 12.7236 7.63 12.5318 7.87153C12.404 8.03492 12.3187 8.22673 12.2761 8.43275C12.2406 8.61035 12.2051 8.79505 12.1553 8.96555C12.1056 9.12184 11.9848 9.24261 11.8356 9.30654C11.722 9.35627 11.6012 9.39889 11.4733 9.43441C11.3242 9.46993 11.2602 9.39179 11.317 9.24971C11.3526 9.15736 11.3597 9.07211 11.3242 8.97976C11.0755 9.02238 10.8979 9.22129 10.8766 9.48414C10.8482 9.7612 10.7274 9.98852 10.5214 10.1732C10.493 10.1945 10.4504 10.2159 10.4219 10.2087C10.3935 10.2016 10.3722 10.1448 10.3722 10.1164C10.3722 9.91748 10.3793 9.71857 10.3793 9.51256C10.3793 9.46283 10.3793 9.4202 10.3793 9.36337C10.1236 9.36337 9.91756 9.45572 9.75417 9.61912C9.60498 9.7612 9.4558 9.89617 9.31372 10.0454C9.1077 10.2656 8.85906 10.2727 8.58911 10.2372C8.50386 10.223 8.48255 10.1732 8.53228 10.0951C8.5607 10.0525 8.59622 10.0027 8.63884 9.96721C8.88038 9.7683 9.06508 9.51966 9.22847 9.25681C9.31372 9.11473 9.42738 8.99397 9.54815 8.8803C9.811 8.63877 10.1023 8.41854 10.4006 8.21963C10.5356 8.12728 10.6493 8.00651 10.7771 7.89995C10.9832 7.72945 11.1892 7.55896 11.3881 7.38846C11.658 7.15403 11.928 6.91249 12.1979 6.67806C12.404 6.50046 12.6171 6.32286 12.8373 6.15947C12.9368 6.08132 13.0575 6.09553 13.1712 6.13105C13.3062 6.17368 13.4411 6.2234 13.5761 6.28024C13.6898 6.32286 13.7892 6.32286 13.8887 6.23761C14.0734 6.07422 14.2581 5.92503 14.4357 5.75454C14.727 5.47038 15.0111 5.17911 15.3024 4.88785C15.3379 4.85233 15.3734 4.81681 15.409 4.78129C15.6789 4.56817 15.956 4.58948 16.2046 4.75288C16.4817 4.93048 16.7587 5.12228 17.0358 5.30699C17.0429 5.31409 17.05 5.32119 17.0642 5.3283C17.2347 5.42775 17.2489 5.42065 17.391 5.28568C17.732 4.966 18.0801 4.64632 18.4211 4.32664C18.556 4.19876 18.691 4.06379 18.826 3.93592C19.0888 3.70148 19.3588 3.46705 19.6145 3.22551C19.9342 2.93425 20.2397 2.63588 20.5523 2.33751C20.6446 2.25227 20.7441 2.16702 20.8364 2.09598C21.0069 1.961 21.2485 1.97521 21.4189 2.09598C21.7031 2.30199 21.9446 2.55774 22.1578 2.83479C22.3922 3.13316 22.6621 3.38891 22.9321 3.65175C23.1594 3.87198 23.3868 4.09931 23.6141 4.32664C23.678 4.39057 23.7349 4.45451 23.7846 4.53265C23.948 4.78129 24.1895 4.95179 24.4097 5.1436C24.6229 5.3354 24.8431 5.52011 25.0562 5.71192C25.2196 5.8611 25.2196 5.8682 25.4114 5.75454C25.6387 5.62667 25.8661 5.48459 26.0934 5.35672C26.2071 5.29278 26.3136 5.23595 26.4344 5.18622C26.5694 5.12939 26.6972 5.12939 26.8109 5.25726C27.0098 5.47748 27.2158 5.69771 27.4289 5.90372C27.5923 6.06712 27.7628 6.2234 27.9404 6.37969C28.1536 6.5644 28.3454 6.77041 28.4803 7.02616C28.5514 7.16824 28.6721 7.26059 28.7858 7.36715C29.0273 7.58027 29.3044 7.74366 29.5886 7.90705C29.7662 8.01361 29.9509 8.10596 30.1285 8.21252C30.1995 8.25515 30.2421 8.23384 30.2919 8.19121C30.4339 8.07755 30.576 7.96388 30.7252 7.85732C30.917 7.72235 31.123 7.6442 31.3432 7.77208C31.5848 7.90705 31.8334 8.04913 32.0679 8.19832C32.3023 8.3546 32.5296 8.5251 32.7498 8.6956C33.0198 8.90161 33.2755 9.11473 33.5455 9.31364C33.6805 9.4131 33.8225 9.49124 33.9646 9.57649C34.2346 9.74699 34.5045 9.91749 34.7745 10.088C34.8029 10.1093 34.8313 10.1377 34.881 10.1874C34.8171 10.2087 34.7745 10.2372 34.7319 10.2372C34.5614 10.2443 34.3909 10.2443 34.2204 10.2443C34.0144 10.2443 33.8439 10.1448 33.6876 10.0311C33.4176 9.83224 33.1477 9.62622 32.8848 9.4131C32.4728 9.08632 32.0608 8.75243 31.6345 8.43275C31.4924 8.33329 31.3575 8.22673 31.1941 8.1699C31.1443 8.15569 31.1159 8.14859 31.0733 8.177C30.9809 8.23384 30.8744 8.27646 30.7891 8.3475C30.5902 8.51089 30.3913 8.68139 30.1995 8.85188C30.0787 8.95844 29.9793 9.10053 29.8443 9.19998C29.6241 9.36337 29.3825 9.50545 29.141 9.64043C29.0913 9.66884 28.9918 9.66174 28.935 9.63332C28.6295 9.48414 28.324 9.32785 28.0186 9.17156C27.9191 9.12184 27.8197 9.07921 27.7202 9.02948C27.6847 9.00817 27.6563 8.97265 27.5994 8.91582C27.6634 8.90161 27.6918 8.8874 27.7273 8.8874C27.9191 8.8803 28.0967 8.93713 28.2743 8.99396C28.2956 9.00107 28.3169 9.01528 28.3383 9.01528C28.5514 9.04369 28.7716 9.065 28.9847 9.08632C29.141 9.10052 29.276 9.07211 29.4039 8.96555C29.5601 8.83057 29.7306 8.7027 29.8869 8.56772C29.9011 8.55352 29.9082 8.5322 29.9224 8.49668C29.8088 8.43985 29.7022 8.36881 29.5815 8.32619C29.3115 8.22673 29.0771 8.07755 28.8355 7.93547C28.729 7.87153 28.6295 7.8076 28.523 7.74366C28.2743 7.57316 28.0683 7.36004 27.9191 7.09009C27.7841 6.84145 27.5639 6.65675 27.3721 6.45073C27.1448 6.20209 26.9103 5.96056 26.6617 5.70481C26.6333 5.72612 26.5978 5.74744 26.5765 5.78296C26.4486 5.95345 26.3207 6.13105 26.1928 6.30155C26.0366 6.50046 25.8803 6.70648 25.5961 6.7491C25.4967 6.76331 25.3972 6.79172 25.3048 6.82724C25.2409 6.85566 25.177 6.89828 25.1343 6.94801C25.0633 7.03326 25.0136 7.13272 24.9496 7.21796C24.8573 7.34584 24.7578 7.48081 24.6513 7.59448C24.5163 7.74366 24.431 7.75787 24.2819 7.67972C24.0901 7.58027 23.9409 7.6371 23.7846 7.76497C23.3512 8.12017 22.9605 8.518 22.5556 8.90161C22.4703 8.97976 22.378 9.0579 22.2714 9.15736C22.243 9.10763 22.2075 9.07211 22.2004 9.03659C22.1862 8.6956 22.243 8.36171 22.4632 8.09886C22.6408 7.88574 22.8469 7.68683 23.0529 7.49502C23.3654 7.20376 23.6922 6.9338 23.9906 6.63544C24.1185 6.50756 24.2534 6.35838 24.2534 6.15236C24.2534 6.08843 24.2392 6.02449 24.2108 5.96056C24.0901 5.64088 23.884 5.37092 23.6496 5.12228C23.4223 4.87364 23.2021 4.63211 22.9676 4.39057C22.8682 4.29111 22.7545 4.19876 22.6337 4.11352C22.1578 3.77963 21.7955 3.35339 21.4829 2.87031C21.4189 2.77086 21.3408 2.6714 21.2698 2.57195C21.2485 2.53643 21.2129 2.51511 21.1632 2.47959C21.1064 2.62167 21.0566 2.74244 21.0424 2.87742C21.0282 3.01239 20.9785 3.14737 20.943 3.27524C20.9359 3.31076 20.9217 3.35339 20.9217 3.38891C20.8861 3.61623 20.7512 3.75121 20.5381 3.81515C20.4173 3.85067 20.2965 3.88619 20.1757 3.93592C19.991 4.01406 19.8845 4.14903 19.8703 4.36926C19.849 4.68894 19.7921 5.00862 19.7566 5.3212C19.7495 5.37803 19.7495 5.43486 19.7424 5.48459C19.7424 5.73323 19.6927 5.97476 19.5932 6.19499C19.5577 6.27313 19.5293 6.37969 19.4085 6.37969C19.2877 6.37969 19.2735 6.27313 19.2451 6.19499C19.167 5.99607 19.103 5.79716 19.0391 5.59825C19.0249 5.55563 19.0107 5.513 18.9894 5.47748C18.9396 5.39224 18.8828 5.37803 18.7976 5.42065C18.6555 5.49169 18.5347 5.59825 18.4282 5.71902C18.0161 6.18078 17.6538 6.67806 17.2773 7.16113C17.1352 7.34584 16.986 7.52344 16.844 7.70814C16.6522 7.96388 16.4604 8.21963 16.2614 8.47537C16.1407 8.62456 16.0199 8.77374 15.8849 8.92292C15.6434 9.19288 15.409 9.46283 15.1461 9.70436C14.6488 10.159 14.0663 10.2869 13.4198 10.1732C13.3559 10.159 13.2849 10.1519 13.2209 10.1306C13.1215 10.0951 13.1002 10.0311 13.1641 9.953C13.3204 9.7612 13.4838 9.56939 13.6401 9.37758C13.7679 9.22129 13.8958 9.0579 14.0308 8.90161C14.1587 8.75243 14.2865 8.61035 14.4144 8.46827C14.7625 8.07755 15.1106 7.68683 15.4587 7.289C15.8352 6.86987 16.2117 6.45073 16.5882 6.0316C16.6806 5.93214 16.78 5.83268 16.8866 5.71902C16.7942 5.65508 16.7232 5.59825 16.6522 5.55563C16.4532 5.42775 16.2472 5.30699 16.0412 5.18622C15.9062 5.10807 15.8707 5.11518 15.7784 5.24305C15.7428 5.28567 15.7215 5.3354 15.6931 5.38513C15.5724 5.59115 15.4516 5.79716 15.3237 5.99608C15.2811 6.06001 15.21 6.12395 15.1319 6.15236C14.8406 6.26603 14.6275 6.45784 14.4712 6.72779C14.4002 6.84856 14.3007 6.95512 14.2084 7.06878C14.1587 7.13272 14.1018 7.14692 14.0237 7.1043C13.7537 6.97643 13.4909 6.83435 13.2351 6.67096C13.2422 6.65675 13.1854 6.64254 13.1144 6.61412Z" fill="#3C3C3C"/>
<path d="M9.40644 15.8277C9.83979 16.7299 10.06 16.8578 10.8841 16.8578V16.9856H5.4282V16.8578C6.17412 16.8578 6.95556 16.6873 6.95556 16.1402C6.95556 16.0479 6.94135 15.9413 6.89163 15.8277C6.86321 15.7779 6.53642 15.0818 6.11729 14.2222H2.65053L1.96855 15.7353C1.82647 16.0479 1.74832 16.2681 1.74832 16.4386C1.74832 16.7512 2.01117 16.8578 2.62212 16.8578V16.9856H0.0717773V16.8578C0.91005 16.8578 1.19421 16.7015 1.61335 15.7708L5.22218 7.84277H5.53476L9.40644 15.8277ZM2.7642 13.9593H5.9681C5.23639 12.4462 4.30577 10.5636 4.30577 10.5636L2.7642 13.9593Z" fill="#3C3C3C"/>
<path d="M14.5499 16.1759C14.1947 16.6235 13.6192 17 12.7383 17C11.5662 17 10.7847 16.453 10.7847 15.636V12.3753H10.1099V12.1906H10.7847V11.3452C11.2039 11.3452 12.1416 10.7129 12.3334 10.3364H12.4471V12.1906H13.1078V12.3753H12.4471V15.5579C12.4471 16.3109 12.7241 16.7087 13.2072 16.7087C13.6619 16.7087 14.0881 16.4246 14.3581 16.1049L14.5499 16.1759Z" fill="#3C3C3C"/>
<path d="M17.1641 15.9985C17.1997 16.4816 17.6188 16.7303 18.2013 16.7303V16.8226H14.4575V16.7303C15.0898 16.7303 15.4947 16.4887 15.4947 15.9985L15.5089 13.0078C15.5089 12.4963 15.0898 12.2831 14.4575 12.276V12.1837L17.1641 11.999V15.9985ZM16.3472 10.3438C16.8018 10.3438 17.1784 10.6563 17.1784 11.0399C17.1784 11.4307 16.8018 11.7361 16.3472 11.7361C15.8854 11.7361 15.516 11.4307 15.516 11.0399C15.516 10.6634 15.8854 10.3438 16.3472 10.3438Z" fill="#3C3C3C"/>
<path d="M22.3573 12.29C22.542 12.29 22.6344 12.1337 22.7125 12.0059V13.4906H22.5775C22.3005 12.7092 21.6185 12.1479 20.7092 12.1479C20.1124 12.1479 19.7146 12.5102 19.7146 12.8583C19.7146 13.8671 23.0393 13.86 23.0393 15.6928C23.0393 16.4459 22.1087 16.936 20.7092 16.936C20.0769 16.936 19.5157 16.7584 19.1392 16.7584C18.9971 16.7584 18.7556 16.7584 18.6987 16.8508V15.4797H18.784C19.0468 16.2185 19.8141 16.8082 20.7092 16.8082C21.3201 16.8082 21.7819 16.4245 21.7819 16.0978C21.7819 15.2382 18.6206 15.0393 18.6206 13.3556C18.6206 12.5458 19.4589 12.0201 20.7092 12.0201C21.6966 12.013 22.0021 12.29 22.3573 12.29Z" fill="#3C3C3C"/>
<path d="M36.8496 15.892C36.8496 16.1122 36.6863 16.2685 36.4163 16.2685C36.0043 16.2685 36.0185 15.6291 36.0185 15.3876L36.0469 13.7821C35.9687 13.8034 35.8693 13.8318 35.7627 13.8673C35.4004 13.9739 34.9316 14.1302 34.3775 14.3646L34.3917 15.5652C34.3917 15.7783 34.4343 15.9843 34.5266 16.1619C34.4059 16.304 34.207 16.4035 33.9654 16.4035C33.4468 16.4035 32.914 15.9843 32.914 15.3663C32.914 14.5564 33.5818 14.2225 34.2638 14.0165C34.413 13.9668 34.6119 13.9171 34.8392 13.8602C35.3081 13.7537 35.7911 13.6968 36.0469 13.6897V13.6258C36.0611 12.6596 35.0665 12.0132 33.6386 12.0132C32.7435 12.0132 31.5927 12.3258 31.5927 13.228C31.5927 13.6187 31.955 13.9242 32.4238 13.9242C32.8785 13.9242 33.255 13.6187 33.255 13.228C33.255 12.8515 32.8785 12.5318 32.4167 12.5318C32.5943 12.3258 32.8714 12.2192 33.1982 12.2192C33.5747 12.2192 34.3703 12.3755 34.3703 13.4624V13.8247C33.1769 13.9881 31.2588 14.1373 31.2588 15.5297C31.2588 16.51 32.3173 16.8368 33.2124 16.8368C33.7878 16.8368 34.3135 16.6308 34.6119 16.2969C34.8321 16.6237 35.2299 16.8368 35.7698 16.8368C36.4305 16.8368 36.9278 16.4603 36.9278 15.8991H36.8496V15.892Z" fill="#3C3C3C"/>
<path d="M30.0012 15.9983V13.3769C30.0012 12.56 29.2197 12.0059 28.0476 12.0059C27.3017 12.0059 26.7831 12.2403 26.4208 12.5884C26.2787 12.766 26.1508 12.9436 26.0442 13.0999C26.0442 13.107 26.0371 13.1141 26.0371 13.1212V13.1141C25.8809 13.3414 25.753 13.5474 25.6606 13.7108C25.4972 13.995 24.7584 15.295 24.4458 16.1262C24.4245 16.1901 24.183 16.5169 24.1546 16.5098C23.9699 16.659 23.6928 16.7371 23.3447 16.7371V16.8295H27.0814V16.7371C26.4989 16.7371 26.0727 16.4885 26.0442 16.0054V13.8387C26.165 12.9578 26.7404 12.3113 27.5929 12.3113C28.076 12.3113 28.3531 12.7021 28.3531 13.4622V16.0054C28.3531 16.4956 27.941 16.7371 27.3159 16.7371V16.8295H31.0526V16.7371C30.4416 16.73 30.0225 16.4814 30.0012 15.9983Z" fill="#3C3C3C"/>
<path d="M24.3819 11.2245V15.7711C24.5737 14.9541 25.0639 14.1514 25.0639 14.1514C25.3907 13.6257 25.7246 13.1355 26.0371 12.7022V10.23L23.3447 10.4076V10.4999C23.9557 10.4999 24.3819 10.7131 24.3819 11.2245Z" fill="#3C3C3C"/>
</svg>
