<svg width="17" height="19" viewBox="0 0 17 19" fill="none" xmlns="http://www.w3.org/2000/svg">
<path d="M8.5 1.39062C13.1484 1.39062 16.7344 4.81055 16.7344 9.39258C16.7344 15.2031 11.1895 18.457 6.10938 17.0625C5.81055 16.9961 5.77734 17.0625 4.05078 17.8262C3.81836 17.8926 3.58594 17.8926 3.41992 17.7598C3.2207 17.6602 3.12109 17.4609 3.12109 17.2285C3.05469 15.7012 3.12109 15.5684 2.85547 15.3027C1.22852 13.875 0.265625 11.7832 0.265625 9.39258C0.265625 4.81055 3.85156 1.39062 8.5 1.39062ZM13.4473 7.56641C13.6797 7.20117 13.248 6.76953 12.8828 7.03516L10.293 8.99414C10.0938 9.12695 9.86133 9.12695 9.69531 8.99414L7.76953 7.56641C7.4707 7.36719 7.13867 7.26758 6.80664 7.33398C6.44141 7.40039 6.14258 7.59961 5.97656 7.89844L3.55273 11.7168C3.32031 12.082 3.75195 12.5137 4.11719 12.248L6.70703 10.2891C6.90625 10.1562 7.13867 10.1562 7.30469 10.2891L9.23047 11.7168C9.5293 11.916 9.86133 12.0156 10.2266 11.9492C10.5586 11.8828 10.8574 11.6836 11.0234 11.3848L13.4473 7.56641Z" fill="#3C3C3C"/>
</svg>
