<svg width="87" height="80" viewBox="0 0 87 80" fill="none" xmlns="http://www.w3.org/2000/svg">
<path d="M40 0C40.4031 0 40.8048 0.00671151 41.2051 0.0185547C20.9442 0.625327 4.70605 17.2396 4.70605 37.6475C4.70627 58.439 21.561 75.2937 42.3525 75.2939C62.7607 75.2939 79.3742 59.0552 79.9805 38.7939C79.9923 39.1945 80 39.5965 80 40C80 62.0914 62.0914 80 40 80C17.9086 80 0 62.0914 0 40C0 17.9086 17.9086 0 40 0Z" fill="white"/>
<path d="M86.8345 3.45035C86.2351 8.63632 84.4372 16.2688 80.9458 22.2911C79.197 25.3074 76.9832 27.9918 74.2112 29.7334C71.4088 31.494 68.087 32.2568 64.2518 31.4912C63.6148 31.364 63.2009 30.7457 63.3278 30.1097C63.4552 29.4737 64.0745 29.0605 64.7115 29.1872C67.9367 29.8312 70.6471 29.1943 72.9562 27.7437C75.296 26.2737 77.2747 23.9332 78.9093 21.1139C81.8776 15.9938 83.5743 9.5258 84.297 4.63909C75.7274 5.59259 69.5525 7.16009 65.208 9.0498C60.6176 11.0467 58.1569 13.3659 56.9978 15.6223C54.9506 19.6087 56.723 24.0605 59.5928 27.4385C61.6849 24.1437 64.2517 20.6826 67.1801 17.7588C67.6397 17.2999 68.3846 17.2999 68.8442 17.7588C69.3038 18.2176 69.3038 18.9614 68.8442 19.4203C65.6968 22.5627 62.9508 26.4086 60.7811 29.9881C58.5344 33.6947 56.9318 37.0705 56.1588 39L53.8902 38.564C53.8902 37.4059 53.4801 36.0053 52.7203 34.4401C51.9673 32.8891 50.9117 31.2576 49.7139 29.6645C47.3168 26.4767 44.4274 23.5364 42.5104 21.8138C42.0274 21.3797 41.9883 20.6346 42.423 20.1523C42.8578 19.6701 43.6041 19.6311 44.0871 20.0651C46.0928 21.8674 49.0878 24.9202 51.594 28.2532C52.8477 29.9204 53.999 31.683 54.8395 33.4143C55.0677 33.8845 55.2729 34.36 55.4555 34.8348C56.2182 33.2717 57.1796 31.4604 58.3102 29.5452C54.9389 25.8407 52.0619 20.0804 54.9016 14.5506C56.3904 11.6513 59.3738 9.02468 64.2702 6.89493C69.1668 4.76528 76.0653 3.09359 85.5474 2.14687L87 2L86.8345 3.45035ZM29.0941 8.01712C31.9225 7.81551 36.4385 7.87569 40.8693 8.71017C45.2461 9.53451 49.8124 11.1645 52.4399 14.3119C52.8558 14.8102 52.7892 15.551 52.2905 15.9665C51.7914 16.3817 51.0494 16.3152 50.6333 15.8173C48.5533 13.3254 44.6854 11.8221 40.4325 11.0211C36.7775 10.3327 33.0385 10.198 30.3743 10.3005C30.6066 18.293 33.3399 23.2219 36.5895 26.1809C40.0232 29.3075 44.1417 30.3392 46.8292 30.3392C47.4792 30.3392 48.0061 30.8653 48.0061 31.5142C48.006 32.1631 47.4792 32.6891 46.8292 32.6891C43.6328 32.6891 38.9249 31.4886 35.0035 27.9181C31.046 24.3146 28 18.3987 28 9.18979V8.09514L29.0941 8.01712ZM36.5826 14.2339C37.0421 13.775 37.7871 13.775 38.2467 14.2339L41.7772 17.7588C42.2367 18.2176 42.2367 18.9614 41.7772 19.4203C41.3176 19.8791 40.5726 19.8791 40.1131 19.4203L36.5826 15.8954C36.123 15.4365 36.123 14.6927 36.5826 14.2339ZM74.2411 10.709C74.7006 10.2501 75.4456 10.2501 75.9052 10.709C76.3648 11.1678 76.3648 11.9116 75.9052 12.3705L71.1979 17.0703C70.7383 17.5292 69.9933 17.5292 69.5338 17.0703C69.0742 16.6115 69.0742 15.8677 69.5338 15.4089L74.2411 10.709Z" fill="white"/>
<path d="M18.2018 45.3129V53.8601H16.504V45.3129H18.2018ZM20.7456 45.3129V46.6924H14V45.3129H20.7456Z" fill="white"/>
<path d="M29.0924 44.8374H30.1712C30.1712 45.4127 30.0993 45.9039 29.9554 46.3109C29.8116 46.714 29.5637 47.0231 29.2116 47.2384C28.8634 47.4497 28.3807 47.5554 27.7637 47.5554V46.6455C28.165 46.6455 28.4602 46.575 28.6495 46.4342C28.8388 46.2893 28.9599 46.0819 29.0129 45.8119C29.0659 45.5419 29.0924 45.217 29.0924 44.8374ZM26.2817 45.3129H27.9795V50.9602C27.9795 51.6177 27.8432 52.1714 27.5706 52.6215C27.3019 53.0716 26.929 53.4101 26.4521 53.6371C25.9789 53.864 25.4338 53.9775 24.8168 53.9775C24.1998 53.9775 23.6509 53.864 23.1701 53.6371C22.6932 53.4101 22.3184 53.0716 22.0459 52.6215C21.7771 52.1714 21.6427 51.6177 21.6427 50.9602V45.3129H23.3461V50.9602C23.3461 51.3437 23.4048 51.6568 23.5222 51.8994C23.6395 52.1421 23.808 52.3201 24.0275 52.4336C24.2509 52.5471 24.5139 52.6039 24.8168 52.6039C25.1272 52.6039 25.3903 52.5471 25.606 52.4336C25.8256 52.3201 25.9921 52.1421 26.1057 51.8994C26.223 51.6568 26.2817 51.3437 26.2817 50.9602V45.3129ZM24.1127 55.2984C24.1127 55.0714 24.196 54.8816 24.3625 54.7289C24.5291 54.5802 24.7524 54.5059 25.0325 54.5059C25.3089 54.5059 25.5303 54.5802 25.6969 54.7289C25.8672 54.8816 25.9524 55.0714 25.9524 55.2984C25.9524 55.5214 25.8672 55.7093 25.6969 55.8619C25.5303 56.0145 25.3089 56.0909 25.0325 56.0909C24.7524 56.0909 24.5291 56.0145 24.3625 55.8619C24.196 55.7093 24.1127 55.5214 24.1127 55.2984Z" fill="white"/>
<path d="M39.6309 45.3129V53.8601H37.9275L34.6058 48.1307V53.8601H32.9024V45.3129H34.6058L37.9332 51.0482V45.3129H39.6309Z" fill="white"/>
<path d="M46.6263 48.794V50.1677H42.311V48.794H46.6263ZM42.8163 45.3129V53.8601H41.1129V45.3129H42.8163ZM47.8414 45.3129V53.8601H46.1437V45.3129H47.8414Z" fill="white"/>
<path d="M51.1347 45.3129V53.8601H49.437V45.3129H51.1347Z" fill="white"/>
<path d="M58.2778 52.4865V53.8601H53.8773V52.4865H58.2778ZM54.4337 45.3129V53.8601H52.7303V45.3129H54.4337ZM57.7043 48.794V50.1325H53.8773V48.794H57.7043ZM58.2721 45.3129V46.6924H53.8773V45.3129H58.2721ZM56.0747 43L57.7895 44.632V44.7024H56.4892L55.5977 43.8453L54.7176 44.7024H53.4401V44.6143L55.1264 43H56.0747Z" fill="white"/>
<path d="M66 45.3129V53.8601H64.2966L60.9749 48.1307V53.8601H59.2715V45.3129H60.9749L64.3022 51.0482V45.3129H66Z" fill="white"/>
<path d="M30.4949 57.3178V65.8826H28.8596V59.2667L26.895 59.9125V58.5799L30.3188 57.3178H30.4949Z" fill="white"/>
<path d="M38.7508 60.8576V62.3369C38.7508 62.9787 38.6846 63.5325 38.5521 63.9982C38.4196 64.46 38.2284 64.8396 37.9786 65.1371C37.7325 65.4306 37.4392 65.6478 37.0985 65.7887C36.7578 65.9296 36.3793 66 35.9629 66C35.6298 66 35.3194 65.957 35.0317 65.8709C34.744 65.7808 34.4847 65.6419 34.2538 65.4541C34.0266 65.2662 33.8298 65.0294 33.6632 64.7437C33.5005 64.4541 33.3756 64.1098 33.2885 63.7106C33.2014 63.3114 33.1579 62.8535 33.1579 62.3369V60.8576C33.1579 60.2158 33.2241 59.6659 33.3566 59.208C33.4929 58.7462 33.6841 58.3686 33.9301 58.075C34.18 57.7815 34.4752 57.5663 34.8159 57.4293C35.1566 57.2884 35.5351 57.218 35.9515 57.218C36.2846 57.218 36.5931 57.263 36.877 57.353C37.1647 57.4391 37.424 57.5741 37.6549 57.758C37.8859 57.942 38.0827 58.1787 38.2455 58.4684C38.4082 58.754 38.5332 59.0965 38.6202 59.4957C38.7073 59.8909 38.7508 60.3449 38.7508 60.8576ZM37.1098 62.56V60.6286C37.1098 60.3195 37.0928 60.0494 37.0587 59.8185C37.0285 59.5876 36.9811 59.392 36.9168 59.2315C36.8524 59.0671 36.7729 58.9341 36.6783 58.8323C36.5837 58.7306 36.4758 58.6562 36.3547 58.6092C36.2335 58.5623 36.0991 58.5388 35.9515 58.5388C35.766 58.5388 35.6014 58.576 35.4575 58.6503C35.3175 58.7247 35.1982 58.8441 35.0998 59.0084C35.0014 59.1689 34.9257 59.3841 34.8727 59.6542C34.8235 59.9203 34.7989 60.2451 34.7989 60.6286V62.56C34.7989 62.8692 34.814 63.1411 34.8443 63.376C34.8784 63.6108 34.9276 63.8123 34.9919 63.9806C35.0601 64.145 35.1396 64.28 35.2304 64.3857C35.325 64.4874 35.4329 64.5618 35.5541 64.6087C35.679 64.6557 35.8152 64.6792 35.9629 64.6792C36.1446 64.6792 36.3055 64.642 36.4455 64.5676C36.5894 64.4894 36.7105 64.368 36.8089 64.2037C36.9111 64.0354 36.9868 63.8162 37.036 63.5462C37.0852 63.2762 37.1098 62.9474 37.1098 62.56Z" fill="white"/>
<path d="M45.4283 60.8576V62.3369C45.4283 62.9787 45.362 63.5325 45.2295 63.9982C45.097 64.46 44.9059 64.8396 44.656 65.1371C44.41 65.4306 44.1166 65.6478 43.7759 65.7887C43.4352 65.9296 43.0567 66 42.6403 66C42.3072 66 41.9968 65.957 41.7091 65.8709C41.4214 65.7808 41.1621 65.6419 40.9312 65.4541C40.7041 65.2662 40.5072 65.0294 40.3407 64.7437C40.1779 64.4541 40.053 64.1098 39.9659 63.7106C39.8789 63.3114 39.8353 62.8535 39.8353 62.3369V60.8576C39.8353 60.2158 39.9016 59.6659 40.0341 59.208C40.1703 58.7462 40.3615 58.3686 40.6076 58.075C40.8574 57.7815 41.1527 57.5663 41.4933 57.4293C41.834 57.2884 42.2126 57.218 42.629 57.218C42.9621 57.218 43.2706 57.263 43.5545 57.353C43.8422 57.4391 44.1015 57.5741 44.3324 57.758C44.5633 57.942 44.7601 58.1787 44.9229 58.4684C45.0857 58.754 45.2106 59.0965 45.2977 59.4957C45.3847 59.8909 45.4283 60.3449 45.4283 60.8576ZM43.7873 62.56V60.6286C43.7873 60.3195 43.7703 60.0494 43.7362 59.8185C43.7059 59.5876 43.6586 59.392 43.5942 59.2315C43.5299 59.0671 43.4504 58.9341 43.3558 58.8323C43.2611 58.7306 43.1532 58.6562 43.0321 58.6092C42.911 58.5623 42.7766 58.5388 42.629 58.5388C42.4435 58.5388 42.2788 58.576 42.135 58.6503C41.9949 58.7247 41.8757 58.8441 41.7772 59.0084C41.6788 59.1689 41.6031 59.3841 41.5501 59.6542C41.5009 59.9203 41.4763 60.2451 41.4763 60.6286V62.56C41.4763 62.8692 41.4914 63.1411 41.5217 63.376C41.5558 63.6108 41.605 63.8123 41.6694 63.9806C41.7375 64.145 41.817 64.28 41.9078 64.3857C42.0025 64.4874 42.1104 64.5618 42.2315 64.6087C42.3564 64.6557 42.4927 64.6792 42.6403 64.6792C42.822 64.6792 42.9829 64.642 43.123 64.5676C43.2668 64.4894 43.3879 64.368 43.4864 64.2037C43.5886 64.0354 43.6643 63.8162 43.7135 63.5462C43.7627 63.2762 43.7873 62.9474 43.7873 62.56Z" fill="white"/>
<path d="M46.5185 59.4311V58.9791C46.5185 58.6542 46.5866 58.3588 46.7229 58.0926C46.8591 57.8265 47.0598 57.6132 47.3247 57.4528C47.5897 57.2923 47.9153 57.2121 48.3014 57.2121C48.6988 57.2121 49.0301 57.2923 49.295 57.4528C49.5638 57.6132 49.7644 57.8265 49.8969 58.0926C50.0332 58.3588 50.1013 58.6542 50.1013 58.9791V59.4311C50.1013 59.7481 50.0332 60.0396 49.8969 60.3058C49.7644 60.5719 49.5657 60.7852 49.3007 60.9456C49.0357 61.1061 48.7064 61.1863 48.3127 61.1863C47.9228 61.1863 47.5935 61.1061 47.3247 60.9456C47.0598 60.7852 46.8591 60.5719 46.7229 60.3058C46.5866 60.0396 46.5185 59.7481 46.5185 59.4311ZM47.603 58.9791V59.4311C47.603 59.5681 47.6276 59.6992 47.6768 59.8244C47.7298 59.9457 47.8093 60.0455 47.9153 60.1238C48.025 60.1981 48.1575 60.2353 48.3127 60.2353C48.4755 60.2353 48.608 60.1981 48.7102 60.1238C48.8124 60.0455 48.8881 59.9457 48.9373 59.8244C48.9865 59.6992 49.0111 59.5681 49.0111 59.4311V58.9791C49.0111 58.8343 48.9846 58.7012 48.9316 58.5799C48.8824 58.4547 48.8048 58.3549 48.6988 58.2805C48.5966 58.2022 48.4641 58.1631 48.3014 58.1631C48.15 58.1631 48.0213 58.2022 47.9153 58.2805C47.8093 58.3549 47.7298 58.4547 47.6768 58.5799C47.6276 58.7012 47.603 58.8343 47.603 58.9791ZM50.4704 64.2389V63.7869C50.4704 63.466 50.5385 63.1725 50.6748 62.9063C50.8149 62.6402 51.0174 62.4269 51.2824 62.2665C51.5511 62.106 51.8805 62.0258 52.2704 62.0258C52.664 62.0258 52.9934 62.106 53.2584 62.2665C53.5233 62.4269 53.724 62.6402 53.8602 62.9063C53.9965 63.1725 54.0646 63.466 54.0646 63.7869V64.2389C54.0646 64.5598 53.9965 64.8533 53.8602 65.1194C53.7277 65.3856 53.529 65.5989 53.264 65.7593C52.9991 65.9198 52.6716 66 52.2817 66C51.888 66 51.5568 65.9198 51.2881 65.7593C51.0193 65.5989 50.8149 65.3856 50.6748 65.1194C50.5385 64.8533 50.4704 64.5598 50.4704 64.2389ZM51.5606 63.7869V64.2389C51.5606 64.3798 51.5909 64.5128 51.6515 64.6381C51.712 64.7633 51.7953 64.8631 51.9013 64.9375C52.0111 65.0118 52.1379 65.049 52.2817 65.049C52.4634 65.049 52.6054 65.0118 52.7076 64.9375C52.8098 64.8631 52.8798 64.7633 52.9177 64.6381C52.9593 64.5128 52.9801 64.3798 52.9801 64.2389V63.7869C52.9801 63.646 52.9536 63.5149 52.9006 63.3936C52.8476 63.2683 52.7681 63.1685 52.6622 63.0942C52.5599 63.0159 52.4294 62.9768 52.2704 62.9768C52.1114 62.9768 51.9789 63.0159 51.8729 63.0942C51.7707 63.1685 51.6931 63.2683 51.6401 63.3936C51.5871 63.5149 51.5606 63.646 51.5606 63.7869ZM52.6735 58.5564L48.6364 65.2369L47.8414 64.8025L51.8786 58.122L52.6735 58.5564Z" fill="white"/>
</svg>
