<svg width="29" height="29" viewBox="0 0 29 29" fill="none" xmlns="http://www.w3.org/2000/svg">
<path d="M27.9453 21.4189L26.6328 26.9424C26.4688 27.7627 25.8125 28.3096 24.9922 28.3096C11.2109 28.2549 0 17.0439 0 3.2627C0 2.44238 0.492188 1.78613 1.3125 1.62207L6.83594 0.30957C7.60156 0.145508 8.42188 0.583008 8.75 1.29395L11.3203 7.25488C11.5938 7.96582 11.4297 8.78613 10.8281 9.22363L7.875 11.6299C9.73438 15.4033 12.7969 18.4658 16.625 20.3252L19.0312 17.3721C19.4688 16.8252 20.2891 16.6064 21 16.8799L26.9609 19.4502C27.6719 19.833 28.1094 20.6533 27.9453 21.4189Z" fill="#9ABB0C"/>
</svg>
