<svg width="15" height="16" viewBox="0 0 15 16" fill="none" xmlns="http://www.w3.org/2000/svg">
<path d="M13.9727 11.5869L13.3164 14.3486C13.2344 14.7588 12.9062 15.0322 12.4961 15.0322C5.60547 15.0049 0 9.39941 0 2.50879C0 2.09863 0.246094 1.77051 0.65625 1.68848L3.41797 1.03223C3.80078 0.950195 4.21094 1.16895 4.375 1.52441L5.66016 4.50488C5.79688 4.86035 5.71484 5.27051 5.41406 5.48926L3.9375 6.69238C4.86719 8.5791 6.39844 10.1104 8.3125 11.04L9.51562 9.56348C9.73438 9.29004 10.1445 9.18066 10.5 9.31738L13.4805 10.6025C13.8359 10.7939 14.0547 11.2041 13.9727 11.5869Z" fill="white"/>
</svg>
