<svg width="53" height="38" viewBox="0 0 53 38" fill="none" xmlns="http://www.w3.org/2000/svg">
<path d="M11.25 15.3887C17.4609 15.3887 22.5 20.4277 22.5 26.6387C22.5 32.9668 17.4609 37.8887 11.25 37.8887C4.92188 37.8887 0 32.9668 0 26.6387V15.3887C0 7.18555 6.67969 0.388672 15 0.388672C16.9922 0.388672 18.75 2.14648 18.75 4.13867C18.75 6.24805 16.9922 7.88867 15 7.88867C10.7812 7.88867 7.5 11.2871 7.5 15.3887V16.0918C8.67188 15.7402 9.84375 15.3887 11.25 15.3887ZM41.25 15.3887C47.4609 15.3887 52.5 20.4277 52.5 26.6387C52.5 32.9668 47.4609 37.8887 41.25 37.8887C34.9219 37.8887 30 32.9668 30 26.6387V15.3887C30 7.18555 36.6797 0.388672 45 0.388672C46.9922 0.388672 48.75 2.14648 48.75 4.13867C48.75 6.24805 46.9922 7.88867 45 7.88867C40.7812 7.88867 37.5 11.2871 37.5 15.3887V16.0918C38.6719 15.7402 39.8438 15.3887 41.25 15.3887Z" fill="white"/>
</svg>
