<svg width="16" height="14" viewBox="0 0 16 14" fill="none" xmlns="http://www.w3.org/2000/svg">
<path d="M4 13C4 13.5625 3.53125 14 3 13.9375H1C0.4375 13.9375 0 13.5 0 12.9688V6C0 5.46875 0.4375 5 1 5H3C3.53125 5 4 5.4375 4 6V13ZM16 6.03125C16 6.8125 15.375 7.46875 14.5938 7.5C14.8438 7.78125 15 8.125 15 8.53125C15 9.25 14.4688 9.84375 13.75 10C13.9062 10.2188 14 10.4688 14 10.75C14 11.4375 13.5625 12 12.9375 12.1875C12.9688 12.2812 13 12.4062 13 12.5312C13 13.3438 12.3125 14 11.5 14H9.65625C8.5625 14 7.53125 13.6562 6.65625 13L5.59375 12.2188C5.21875 11.9375 5 11.5 5 11V6C5 6.03125 5 6 5 6C5 5.5625 5.1875 5.15625 5.5625 4.84375L6.0625 4.4375C8.625 2.40625 7.46875 0 9.4375 0C10.4062 0 11 0.78125 11 1.53125C11 2 10.625 3.34375 9.90625 4.53125H14.5C15.3125 4.53125 16 5.1875 16 6.03125Z" fill="#9ABB0C"/>
</svg>
