<svg width="87" height="80" viewBox="0 0 87 80" fill="none" xmlns="http://www.w3.org/2000/svg">
<path d="M40 0C40.4031 0 40.8048 0.00671151 41.2051 0.0185547C20.9442 0.625327 4.70605 17.2396 4.70605 37.6475C4.70627 58.439 21.561 75.2937 42.3525 75.2939C62.7607 75.2939 79.3742 59.0552 79.9805 38.7939C79.9923 39.1945 80 39.5965 80 40C80 62.0914 62.0914 80 40 80C17.9086 80 0 62.0914 0 40C0 17.9086 17.9086 0 40 0Z" fill="white"/>
<path d="M86.8345 3.45035C86.2351 8.63632 84.4372 16.2688 80.9458 22.2911C79.197 25.3074 76.9832 27.9918 74.2112 29.7334C71.4088 31.494 68.087 32.2568 64.2518 31.4912C63.6148 31.364 63.2009 30.7457 63.3278 30.1097C63.4552 29.4737 64.0745 29.0605 64.7115 29.1872C67.9367 29.8312 70.6471 29.1943 72.9562 27.7437C75.296 26.2737 77.2747 23.9332 78.9093 21.1139C81.8776 15.9938 83.5743 9.5258 84.297 4.63909C75.7274 5.59259 69.5525 7.16009 65.208 9.0498C60.6176 11.0467 58.1569 13.3659 56.9978 15.6223C54.9506 19.6087 56.723 24.0605 59.5928 27.4385C61.6849 24.1437 64.2517 20.6826 67.1801 17.7588C67.6397 17.2999 68.3846 17.2999 68.8442 17.7588C69.3038 18.2176 69.3038 18.9614 68.8442 19.4203C65.6968 22.5627 62.9508 26.4086 60.7811 29.9881C58.5344 33.6947 56.9318 37.0705 56.1588 39L53.8902 38.564C53.8902 37.4059 53.4801 36.0053 52.7203 34.4401C51.9673 32.8891 50.9117 31.2576 49.7139 29.6645C47.3168 26.4767 44.4274 23.5364 42.5104 21.8138C42.0274 21.3797 41.9883 20.6346 42.423 20.1523C42.8578 19.6701 43.6041 19.6311 44.0871 20.0651C46.0928 21.8674 49.0878 24.9202 51.594 28.2532C52.8477 29.9204 53.999 31.683 54.8395 33.4143C55.0677 33.8845 55.2729 34.36 55.4555 34.8348C56.2182 33.2717 57.1796 31.4604 58.3102 29.5452C54.9389 25.8407 52.0619 20.0804 54.9016 14.5506C56.3904 11.6513 59.3738 9.02468 64.2702 6.89493C69.1668 4.76528 76.0653 3.09359 85.5474 2.14687L87 2L86.8345 3.45035ZM29.0941 8.01712C31.9225 7.81551 36.4385 7.87569 40.8693 8.71017C45.2461 9.53451 49.8124 11.1645 52.4399 14.3119C52.8558 14.8102 52.7892 15.551 52.2905 15.9665C51.7914 16.3817 51.0494 16.3152 50.6333 15.8173C48.5533 13.3254 44.6854 11.8221 40.4325 11.0211C36.7775 10.3327 33.0385 10.198 30.3743 10.3005C30.6066 18.293 33.3399 23.2219 36.5895 26.1809C40.0232 29.3075 44.1417 30.3392 46.8292 30.3392C47.4792 30.3392 48.0061 30.8653 48.0061 31.5142C48.006 32.1631 47.4792 32.6891 46.8292 32.6891C43.6328 32.6891 38.9249 31.4886 35.0035 27.9181C31.046 24.3146 28 18.3987 28 9.18979V8.09514L29.0941 8.01712ZM36.5826 14.2339C37.0421 13.775 37.7871 13.775 38.2467 14.2339L41.7772 17.7588C42.2367 18.2176 42.2367 18.9614 41.7772 19.4203C41.3176 19.8791 40.5726 19.8791 40.1131 19.4203L36.5826 15.8954C36.123 15.4365 36.123 14.6927 36.5826 14.2339ZM74.2411 10.709C74.7006 10.2501 75.4456 10.2501 75.9052 10.709C76.3648 11.1678 76.3648 11.9116 75.9052 12.3705L71.1979 17.0703C70.7383 17.5292 69.9933 17.5292 69.5338 17.0703C69.0742 16.6115 69.0742 15.8677 69.5338 15.4089L74.2411 10.709Z" fill="white"/>
<path d="M21.7305 45.4688V54H19.9785V45.4688H21.7305ZM24.3555 45.4688V46.8457H17.3945V45.4688H24.3555Z" fill="white"/>
<path d="M25.3574 45.4688H28.5391C29.1914 45.4688 29.752 45.5664 30.2207 45.7617C30.6934 45.957 31.0566 46.2461 31.3105 46.6289C31.5645 47.0117 31.6914 47.4824 31.6914 48.041C31.6914 48.498 31.6133 48.8906 31.457 49.2188C31.3047 49.543 31.0879 49.8145 30.8066 50.0332C30.5293 50.248 30.2031 50.4199 29.8281 50.5488L29.2715 50.8418H26.5059L26.4941 49.4707H28.5508C28.8594 49.4707 29.1152 49.416 29.3184 49.3066C29.5215 49.1973 29.6738 49.0449 29.7754 48.8496C29.8809 48.6543 29.9336 48.4277 29.9336 48.1699C29.9336 47.8965 29.8828 47.6602 29.7812 47.4609C29.6797 47.2617 29.5254 47.1094 29.3184 47.0039C29.1113 46.8984 28.8516 46.8457 28.5391 46.8457H27.1152V54H25.3574V45.4688ZM30.127 54L28.1816 50.1973L30.0391 50.1855L32.0078 53.918V54H30.127Z" fill="white"/>
<path d="M37.7559 45.4688H39.5078V51.1055C39.5078 51.7617 39.3672 52.3145 39.0859 52.7637C38.8086 53.2129 38.4238 53.5508 37.9316 53.7773C37.4434 54.0039 36.8809 54.1172 36.2441 54.1172C35.6074 54.1172 35.041 54.0039 34.5449 53.7773C34.0527 53.5508 33.666 53.2129 33.3848 52.7637C33.1074 52.3145 32.9688 51.7617 32.9688 51.1055V45.4688H34.7266V51.1055C34.7266 51.4883 34.7871 51.8008 34.9082 52.043C35.0293 52.2852 35.2031 52.4629 35.4297 52.5762C35.6602 52.6895 35.9316 52.7461 36.2441 52.7461C36.5645 52.7461 36.8359 52.6895 37.0586 52.5762C37.2852 52.4629 37.457 52.2852 37.5742 52.043C37.6953 51.8008 37.7559 51.4883 37.7559 51.1055V45.4688Z" fill="white"/>
<path d="M42.127 45.4688L43.9082 49.3594L45.6895 45.4688H47.6055L44.7988 50.8945V54H43.0176V50.8945L40.2051 45.4688H42.127Z" fill="white"/>
<path d="M54.1094 52.6289V54H49.5684V52.6289H54.1094ZM50.1426 45.4688V54H48.3848V45.4688H50.1426ZM53.5176 48.9434V50.2793H49.5684V48.9434H53.5176ZM54.1035 45.4688V46.8457H49.5684V45.4688H54.1035ZM51.8184 43.6289L53.4766 44.9883H52.2402L51.3496 44.2266L50.459 44.9883H49.2168L50.875 43.6289H51.8184ZM48.6836 42.6035L49.6445 44.1855H48.6836L47.3477 42.6035H48.6836Z" fill="white"/>
<path d="M62.0781 45.4688V54H60.3203L56.8926 48.2812V54H55.1348V45.4688H56.8926L60.3262 51.1934V45.4688H62.0781Z" fill="white"/>
<path d="M24.1562 57.4688V66H22.4043V57.4688H24.1562ZM26.7812 57.4688V58.8457H19.8203V57.4688H26.7812Z" fill="white"/>
<path d="M33.4727 60.9434V62.3145H29.0195V60.9434H33.4727ZM29.541 57.4688V66H27.7832V57.4688H29.541ZM34.7266 57.4688V66H32.9746V57.4688H34.7266Z" fill="white"/>
<path d="M43.2637 61.5352V61.9395C43.2637 62.5879 43.1758 63.1699 43 63.6855C42.8242 64.2012 42.5762 64.6406 42.2559 65.0039C41.9355 65.3633 41.5527 65.6387 41.1074 65.8301C40.666 66.0215 40.1758 66.1172 39.6367 66.1172C39.1016 66.1172 38.6113 66.0215 38.166 65.8301C37.7246 65.6387 37.3418 65.3633 37.0176 65.0039C36.6934 64.6406 36.4414 64.2012 36.2617 63.6855C36.0859 63.1699 35.998 62.5879 35.998 61.9395V61.5352C35.998 60.8828 36.0859 60.3008 36.2617 59.7891C36.4375 59.2734 36.6855 58.834 37.0059 58.4707C37.3301 58.1074 37.7129 57.8301 38.1543 57.6387C38.5996 57.4473 39.0898 57.3516 39.625 57.3516C40.1641 57.3516 40.6543 57.4473 41.0957 57.6387C41.541 57.8301 41.9238 58.1074 42.2441 58.4707C42.5684 58.834 42.8184 59.2734 42.9941 59.7891C43.1738 60.3008 43.2637 60.8828 43.2637 61.5352ZM41.4883 61.9395V61.5234C41.4883 61.0703 41.4473 60.6719 41.3652 60.3281C41.2832 59.9844 41.1621 59.6953 41.002 59.4609C40.8418 59.2266 40.6465 59.0508 40.416 58.9336C40.1855 58.8125 39.9219 58.752 39.625 58.752C39.3281 58.752 39.0645 58.8125 38.834 58.9336C38.6074 59.0508 38.4141 59.2266 38.2539 59.4609C38.0977 59.6953 37.9785 59.9844 37.8965 60.3281C37.8145 60.6719 37.7734 61.0703 37.7734 61.5234V61.9395C37.7734 62.3887 37.8145 62.7871 37.8965 63.1348C37.9785 63.4785 38.0996 63.7695 38.2598 64.0078C38.4199 64.2422 38.6152 64.4199 38.8457 64.541C39.0762 64.6621 39.3398 64.7227 39.6367 64.7227C39.9336 64.7227 40.1973 64.6621 40.4277 64.541C40.6582 64.4199 40.8516 64.2422 41.0078 64.0078C41.1641 63.7695 41.2832 63.4785 41.3652 63.1348C41.4473 62.7871 41.4883 62.3887 41.4883 61.9395ZM37.4863 56.9941L39.1445 55.6348H40.082L41.7461 56.9941H40.5039L39.6133 56.2383L38.7227 56.9941H37.4863ZM41.3184 56.1914L42.2793 54.6152H43.6094L42.2793 56.1914H41.3184Z" fill="white"/>
<path d="M51.4727 57.4688V66H49.7148L46.2871 60.2812V66H44.5293V57.4688H46.2871L49.7207 63.1934V57.4688H51.4727Z" fill="white"/>
<path d="M59.7637 61.541V64.9219C59.6309 65.082 59.4258 65.2559 59.1484 65.4434C58.8711 65.627 58.5137 65.7852 58.0762 65.918C57.6387 66.0508 57.1094 66.1172 56.4883 66.1172C55.9375 66.1172 55.4355 66.0273 54.9824 65.8477C54.5293 65.6641 54.1387 65.3965 53.8105 65.0449C53.4863 64.6934 53.2363 64.2637 53.0605 63.7559C52.8848 63.2441 52.7969 62.6602 52.7969 62.0039V61.4707C52.7969 60.8145 52.8809 60.2305 53.0488 59.7188C53.2207 59.207 53.4648 58.7754 53.7812 58.4238C54.0977 58.0723 54.4746 57.8047 54.9121 57.6211C55.3496 57.4375 55.8359 57.3457 56.3711 57.3457C57.1133 57.3457 57.7227 57.4668 58.1992 57.709C58.6758 57.9473 59.0391 58.2793 59.2891 58.7051C59.543 59.127 59.6992 59.6113 59.7578 60.1582H58.0527C58.0098 59.8691 57.9277 59.6172 57.8066 59.4023C57.6855 59.1875 57.5117 59.0195 57.2852 58.8984C57.0625 58.7773 56.7734 58.7168 56.418 58.7168C56.125 58.7168 55.8633 58.7773 55.6328 58.8984C55.4062 59.0156 55.2148 59.1895 55.0586 59.4199C54.9023 59.6504 54.7832 59.9355 54.7012 60.2754C54.6191 60.6152 54.5781 61.0098 54.5781 61.459V62.0039C54.5781 62.4492 54.6211 62.8438 54.707 63.1875C54.793 63.5273 54.9199 63.8145 55.0879 64.0488C55.2598 64.2793 55.4707 64.4531 55.7207 64.5703C55.9707 64.6875 56.2617 64.7461 56.5938 64.7461C56.8711 64.7461 57.1016 64.7227 57.2852 64.6758C57.4727 64.6289 57.623 64.5723 57.7363 64.5059C57.8535 64.4355 57.9434 64.3691 58.0059 64.3066V62.7949H56.4004V61.541H59.7637Z" fill="white"/>
</svg>
