<svg width="202" height="32" viewBox="0 0 202 32" fill="none" xmlns="http://www.w3.org/2000/svg">
<path d="M83.987 19.5653L79.2328 23.0344L74.4785 19.5653L69.6552 16.1455L74.4785 12.7257L79.2328 9.25662L83.987 12.7257L88.8103 16.1455L83.987 19.5653ZM83.3107 13.6592L83.3039 13.6547L83.2977 13.6496L79.2328 10.6834L75.1678 13.6496L75.1616 13.6547L75.1548 13.6592L71.6482 16.1455L75.1548 18.6319L75.1616 18.6363L75.1678 18.6414L79.2328 21.6071L83.2977 18.6414L83.3039 18.6363L83.3107 18.6319L86.8178 16.1455L83.3107 13.6592Z" fill="white"/>
<path d="M92.1134 19.5653L87.3592 23.0344L82.605 19.5653L77.7816 16.1455L82.605 12.7257L87.3592 9.25662L92.1134 12.7257L96.9368 16.1455L92.1134 19.5653ZM91.4371 13.6592L91.4304 13.6547L91.4241 13.6496L87.3592 10.6834L83.2943 13.6496L83.288 13.6547L83.2812 13.6592L79.7747 16.1455L83.2812 18.6319L83.288 18.6363L83.2943 18.6414L87.3592 21.6071L91.4241 18.6414L91.4304 18.6363L91.4371 18.6319L94.9443 16.1455L91.4371 13.6592Z" fill="white"/>
<path d="M97.5422 14.8196L94.0345 10.1177L97.5422 5.41582L101 0.645508L104.458 5.41582L107.966 10.1177L104.458 14.8196L101 19.59L97.5422 14.8196ZM103.514 14.1508L103.519 14.1441L103.524 14.1379L106.523 10.1177L103.524 6.09753L103.519 6.09136L103.514 6.08464L101 2.61664L98.486 6.08464L98.4815 6.09136L98.4764 6.09753L95.4777 10.1177L98.4764 14.1379L98.4815 14.1441L98.486 14.1508L101 17.6194L103.514 14.1508Z" fill="white"/>
<path d="M97.5422 26.8752L94.0345 22.1733L97.5422 17.4714L101 12.7011L104.458 17.4714L107.966 22.1733L104.458 26.8752L101 31.6455L97.5422 26.8752ZM103.514 26.2064L103.519 26.1997L103.524 26.1935L106.523 22.1733L103.524 18.1531L103.519 18.1469L103.514 18.1402L101 14.6722L98.486 18.1402L98.4815 18.1469L98.4764 18.1531L95.4777 22.1733L98.4764 26.1935L98.4815 26.1997L98.486 26.2064L101 29.6749L103.514 26.2064Z" fill="white"/>
<path d="M127.521 19.5653L122.767 23.0344L118.013 19.5653L113.19 16.1455L118.013 12.7257L122.767 9.25662L127.521 12.7257L132.345 16.1455L127.521 19.5653ZM126.845 13.6592L126.838 13.6547L126.832 13.6496L122.767 10.6834L118.702 13.6496L118.696 13.6547L118.689 13.6592L115.183 16.1455L118.689 18.6319L118.696 18.6363L118.702 18.6414L122.767 21.6071L126.832 18.6414L126.838 18.6363L126.845 18.6319L130.352 16.1455L126.845 13.6592Z" fill="white"/>
<path d="M118.815 19.5653L114.06 23.0344L109.306 19.5653L104.483 16.1455L109.306 12.7257L114.06 9.25662L118.815 12.7257L123.638 16.1455L118.815 19.5653ZM118.138 13.6592L118.132 13.6547L118.125 13.6496L114.06 10.6834L109.995 13.6496L109.989 13.6547L109.982 13.6592L106.476 16.1455L109.982 18.6319L109.989 18.6363L109.995 18.6414L114.06 21.6071L118.125 18.6414L118.132 18.6363L118.138 18.6319L121.645 16.1455L118.138 13.6592Z" fill="white"/>
<path d="M70.8161 15.5714V16.7196H0V15.5714H70.8161Z" fill="white"/>
<path d="M202 15.5714V16.7196H131.184V15.5714H202Z" fill="white"/>
</svg>
