<svg width="266" height="33" viewBox="0 0 266 33" fill="none" xmlns="http://www.w3.org/2000/svg">
<path d="M175.982 11.1992C160.524 6.33672 151.709 11.7511 147 17.0003L146.5 16.4996C157.5 3.49925 175.049 10.5084 176.648 10.5084C203.727 21.4489 214.362 18.9761 217.826 17.9194C236.35 9.76928 248.21 11.2451 253.541 12.7186C230.62 9.26516 223.69 18.2441 212.363 19.4873C198.37 18.8863 195.305 17.2772 175.982 11.1992Z" fill="white" stroke="white"/>
<path d="M157.998 11.2143C160.987 10.6422 164.415 11.0613 168.47 14.3447L168.473 14.3474L168.476 14.3504C172.038 17.6339 177.302 18.9565 179.486 19.2055L179.504 19.4511C177.668 19.9134 174.601 20.3977 171.355 20.3515C168.112 20.3053 164.672 19.7293 162.106 18.0538C157.062 14.7595 152.128 14.107 150.309 14.1893L150 14.2032L150.203 13.9816C150.864 13.2616 152.325 12.4571 154.613 12.2528C155.674 11.8318 156.799 11.4437 157.998 11.2143ZM162.765 16.6745C158.232 13.6603 153.705 13.5365 151.306 13.9559C153.63 14.1053 157.906 15.0065 162.256 17.8474C164.759 19.4819 168.137 20.0551 171.359 20.101C173.32 20.1289 175.215 19.9605 176.808 19.7219C175.361 19.795 173.655 19.7807 171.868 19.5958C168.776 19.276 165.43 18.4465 162.765 16.6745ZM162.774 15.301C158.521 12.9349 154.727 12.9302 152.34 13.4708C152.23 13.5157 152.121 13.5605 152.012 13.6038C154.593 13.3297 158.757 13.7032 162.917 16.4693C165.531 18.2077 168.828 19.0291 171.896 19.3465C174.174 19.5822 176.319 19.5388 177.952 19.3906C174.268 19.1396 167.816 18.1053 162.774 15.301ZM164.895 14.8039C160.483 12.7637 157.095 12.2902 154.678 12.4989C154.436 12.5951 154.197 12.6935 153.961 12.792C153.769 12.8719 153.579 12.9523 153.391 13.032C155.824 12.7223 159.2 13.0218 162.908 15.0845C167.131 17.4336 172.365 18.5312 176.092 18.9653C175.723 18.8753 175.327 18.7715 174.903 18.6518C172.494 17.9715 169.176 16.7837 164.895 14.8039ZM168.297 14.534C164.302 11.2998 160.955 10.904 158.05 11.4601C157.141 11.6341 156.273 11.9015 155.439 12.2073C157.841 12.1524 161.024 12.735 165.01 14.5786C169.281 16.5535 172.585 17.7359 174.978 18.4116C175.271 18.4943 175.55 18.5691 175.816 18.6371C173.414 17.8872 170.53 16.5917 168.297 14.534ZM153.698 12.6282C152.58 12.8298 151.725 13.1827 151.125 13.5614C151.457 13.441 151.836 13.328 152.257 13.2318C152.723 13.0403 153.203 12.8355 153.698 12.6282Z" fill="white" stroke="white"/>
<path d="M173.039 10.3468C178.554 11.3023 184.355 13.3618 187.788 17.5389L187.791 17.5423L187.794 17.5459C190.728 21.6276 195.73 23.9546 197.861 24.6055L197.833 24.8665C195.915 25.0243 192.765 24.9856 189.538 24.3584C186.313 23.7316 182.99 22.5134 180.747 20.2974C179.652 19.2156 177.917 18.048 175.892 16.8995C173.87 15.7522 171.567 14.6287 169.344 13.6336C167.12 12.6386 164.977 11.7727 163.274 11.1407C162.423 10.8247 161.682 10.5675 161.097 10.3819C160.509 10.1952 160.087 10.084 159.868 10.0555L159.558 10.015L159.802 9.81868C159.924 9.72095 160.097 9.65185 160.304 9.60289C160.513 9.55339 160.767 9.52167 161.06 9.50631C161.646 9.47557 162.399 9.50937 163.276 9.60281C163.284 9.60369 163.292 9.60449 163.301 9.60538C165.954 9.56759 169.442 9.72348 173.039 10.3468ZM161.371 10.1897C161.927 10.3705 162.604 10.6065 163.367 10.89C165.075 11.524 167.224 12.3921 169.453 13.3895C171.681 14.3868 173.992 15.5143 176.024 16.6671C178.054 17.8186 179.814 19.0002 180.935 20.1074C183.124 22.2693 186.385 23.4735 189.589 24.0962C191.539 24.4751 193.46 24.6363 195.093 24.6699C193.637 24.4886 191.938 24.1694 190.191 23.6566C187.168 22.7696 183.988 21.3023 181.663 18.9671C180.527 17.8255 178.73 16.6766 176.631 15.5989C174.534 14.5223 172.145 13.5216 169.833 12.6742C167.521 11.8269 165.289 11.1337 163.505 10.6716C162.686 10.4595 161.963 10.2967 161.371 10.1897ZM163.407 10.307C163.103 10.2509 162.813 10.2018 162.539 10.1593C162.863 10.2339 163.208 10.3186 163.572 10.4127C165.365 10.8773 167.606 11.5733 169.925 12.4233C172.244 13.2732 174.644 14.2781 176.753 15.361C178.859 16.4427 180.686 17.6071 181.853 18.7787C184.133 21.0696 187.266 22.5198 190.266 23.4C192.493 24.0536 194.64 24.3905 196.296 24.5261C192.67 23.6057 186.43 21.3695 181.93 17.5269C180.648 16.4327 178.752 15.3726 176.59 14.4088C174.429 13.4457 172.012 12.582 169.695 11.8781C167.377 11.1741 165.162 10.6305 163.407 10.307ZM169.693 11.1217C167.26 10.4839 165.021 10.0604 163.287 9.87301C163.031 9.87675 162.783 9.88219 162.543 9.88929C162.831 9.93349 163.136 9.98513 163.456 10.0441C165.222 10.3697 167.447 10.9159 169.772 11.6222C172.097 12.3285 174.526 13.196 176.698 14.1646C178.869 15.1324 180.793 16.2047 182.104 17.3235C185.873 20.5423 190.886 22.6278 194.521 23.748C194.17 23.5878 193.795 23.4082 193.394 23.207C191.12 22.0633 188.035 20.2249 184.138 17.3833C180.265 14.5595 174.597 12.4079 169.693 11.1217ZM172.994 10.61C170.241 10.1331 167.553 9.93148 165.258 9.88085C166.616 10.1105 168.147 10.4401 169.76 10.8633C174.678 12.153 180.383 14.3151 184.295 17.1675C188.183 20.0021 191.255 21.8323 193.515 22.9682C193.791 23.1071 194.055 23.2353 194.306 23.3539C192.054 22.1388 189.422 20.2654 187.582 17.7088L187.422 17.5179C184.032 13.5437 178.404 11.5474 172.994 10.61Z" fill="white" stroke="white"/>
<path d="M188.193 15.1118C189.125 15.423 191.454 16.1109 194.742 16.8996C195.993 17.1998 197.383 17.5148 198.888 17.829C204.353 18.9698 208.139 20.7241 209.367 21.4701C217.378 25.3981 223.91 25.8574 226.155 25.6018L226.194 25.8579C224.897 26.0826 223.34 26.3192 221.637 26.5359C220.485 26.6824 219.267 26.82 218.017 26.9386C217.048 27.0306 216.059 27.111 215.069 27.1757L215.069 27.176C215.067 27.1761 215.066 27.1759 215.064 27.176C211.872 27.3843 208.652 27.4277 205.958 27.1504C204.611 27.0117 203.392 26.7924 202.372 26.4719C201.354 26.1519 200.525 25.7278 199.969 25.1728C197.765 22.9756 194.825 20.5496 192.416 18.6553C191.212 17.7085 190.142 16.8952 189.364 16.3104C188.975 16.0181 188.66 15.7828 188.437 15.6165C188.326 15.5335 188.237 15.4674 188.174 15.4201C188.143 15.3964 188.118 15.3769 188.099 15.3624C188.083 15.3501 188.065 15.3361 188.055 15.3259L188.193 15.1118ZM192.585 18.4543C194.996 20.3502 197.946 22.7836 200.161 24.9921C200.674 25.5046 201.458 25.9118 202.455 26.2254C203.451 26.5384 204.65 26.7549 205.987 26.8925C208.068 27.1067 210.471 27.128 212.938 27.0289C212.81 27.0148 212.678 27.0003 212.543 26.9844C211.304 26.8389 209.758 26.6181 208.19 26.3418C206.623 26.0655 205.033 25.7331 203.707 25.3636C203.044 25.1789 202.445 24.9841 201.947 24.7818C201.452 24.5804 201.047 24.3678 200.78 24.1437C199.629 23.1783 195.405 20.2754 191.795 17.8371C192.05 18.0354 192.314 18.2415 192.585 18.4543ZM189.256 15.8162C193.078 18.3716 199.484 22.7136 200.955 23.9478C201.19 24.1449 201.564 24.3449 202.051 24.5428C202.536 24.7399 203.124 24.9314 203.781 25.1146C205.095 25.4808 206.676 25.8114 208.238 26.0869C209.8 26.3623 211.342 26.5821 212.575 26.727C213.192 26.7994 213.732 26.8529 214.158 26.8854C214.533 26.914 214.815 26.9257 214.984 26.9206L215.049 26.9176C215.049 26.9175 215.05 26.9176 215.05 26.9176C215.695 26.8755 216.338 26.8256 216.976 26.7713C214.773 26.3944 211.788 25.7996 208.986 25.068C207.358 24.6428 205.79 24.171 204.473 23.6682C203.16 23.1668 202.082 22.6293 201.447 22.0682C200.231 20.9939 197.76 19.6514 195.149 18.4055C193.071 17.4139 190.915 16.4893 189.256 15.8162ZM190.682 16.1232C192.091 16.7161 193.701 17.4256 195.267 18.1729C197.875 19.417 200.38 20.7742 201.627 21.8768C202.224 22.4041 203.263 22.9275 204.571 23.427C205.875 23.925 207.433 24.3939 209.056 24.8177C212.293 25.6631 215.78 26.3261 218.009 26.6789C218.908 26.5934 219.792 26.4976 220.646 26.3962C218.528 26.0802 215.708 25.6135 213.18 25.0971C211.716 24.7979 210.347 24.4817 209.269 24.1683C208.73 24.0116 208.262 23.855 207.889 23.7006C207.521 23.5479 207.232 23.3915 207.065 23.2303C206.929 23.098 206.691 22.9262 206.364 22.7216C206.04 22.5183 205.634 22.287 205.167 22.0355C204.233 21.5326 203.059 20.9516 201.806 20.3568C199.305 19.1694 196.494 17.9292 194.665 17.1482C193.107 16.7744 191.764 16.4228 190.682 16.1232ZM196.098 17.4832C197.817 18.2324 199.965 19.1942 201.924 20.1242C203.179 20.7198 204.358 21.303 205.297 21.809C205.767 22.062 206.178 22.2964 206.51 22.504C206.839 22.7103 207.097 22.8944 207.255 23.0471C207.383 23.171 207.631 23.3113 207.995 23.4622C208.354 23.6112 208.812 23.7648 209.346 23.92C210.413 24.2304 211.774 24.5449 213.236 24.8435C216.15 25.4389 219.457 25.9691 221.62 26.2765C222.559 26.1568 223.454 26.0308 224.285 25.9045C221.155 25.7869 215.665 24.8492 209.242 21.6994L209.236 21.6966L209.231 21.6933C208.041 20.9684 204.281 19.2197 198.831 18.082C197.872 17.8817 196.958 17.6802 196.098 17.4832Z" fill="white" stroke="white"/>
<path d="M206.545 18.6841C207.02 18.7354 207.851 18.7427 208.993 18.7506C210.13 18.7585 211.568 18.7669 213.245 18.8223C214.519 18.8643 215.932 18.8956 217.458 18.9073C222.997 18.9496 226.97 19.7784 228.28 20.1937C236.719 22.1269 243.22 21.428 245.401 20.8431L245.477 21.0994C244.231 21.5003 242.73 21.9541 241.084 22.4155C239.97 22.7274 238.79 23.0428 237.576 23.3477C236.635 23.5844 235.673 23.8146 234.706 24.0321L234.706 24.0323C234.705 24.0326 234.704 24.0326 234.703 24.0329C231.589 24.7336 228.425 25.3018 225.735 25.5172C224.39 25.6249 223.161 25.6447 222.114 25.5477C221.069 25.4509 220.195 25.237 219.569 24.8682C217.094 23.4112 213.862 21.9512 211.226 20.8439C209.909 20.2905 208.742 19.8258 207.895 19.4939C207.471 19.328 207.128 19.1954 206.885 19.1014C206.764 19.0545 206.667 19.0171 206.599 18.9901C206.565 18.9766 206.537 18.9654 206.516 18.9569C206.5 18.95 206.478 18.9411 206.464 18.9333L206.545 18.6841ZM211.831 20.8092C214.371 21.8889 217.369 23.263 219.704 24.6379C220.281 24.9775 221.11 25.1861 222.139 25.2815C223.165 25.3766 224.378 25.3577 225.714 25.2507C227.686 25.0928 229.919 24.7434 232.203 24.29C232.201 24.2902 232.199 24.2903 232.197 24.2904C230.957 24.3746 229.404 24.4474 227.823 24.4774C226.241 24.5074 224.63 24.4946 223.273 24.4075C222.595 24.364 221.979 24.3018 221.461 24.2165C220.946 24.1316 220.519 24.0224 220.225 23.8808C219.349 23.4589 216.882 22.5712 214.141 21.6129C213.382 21.3474 212.602 21.0766 211.831 20.8092ZM207.907 19.1622C209.737 19.8041 212.063 20.6026 214.23 21.3603C216.962 22.3156 219.447 23.2096 220.341 23.6397C220.6 23.7644 220.997 23.8688 221.505 23.9526C222.011 24.036 222.617 24.0974 223.29 24.1407C224.636 24.2271 226.24 24.24 227.817 24.2101C229.394 24.1801 230.943 24.1076 232.179 24.0237C233.342 23.9447 234.217 23.8561 234.58 23.7855L234.646 23.7718L234.647 23.7717C235.201 23.647 235.753 23.5174 236.302 23.3855C234.105 23.4319 231.192 23.4277 228.431 23.2892C226.768 23.2059 225.159 23.074 223.793 22.8749C222.431 22.6764 221.296 22.4093 220.592 22.0489C219.247 21.3599 216.628 20.7199 213.882 20.1836C211.776 19.7725 209.608 19.4244 207.907 19.1622ZM208.701 19.0154C210.267 19.2611 212.123 19.5679 213.933 19.9214C216.673 20.4564 219.33 21.1016 220.714 21.8108C221.376 22.1494 222.472 22.4122 223.831 22.6103C225.186 22.8077 226.786 22.9391 228.444 23.0222C231.752 23.1881 235.28 23.1611 237.525 23.085C238.325 22.8839 239.11 22.6776 239.871 22.4714C237.769 22.5558 235.036 22.6295 232.564 22.6196C231.08 22.6137 229.689 22.5777 228.584 22.4961C228.032 22.4553 227.55 22.403 227.162 22.3367C226.78 22.2712 226.474 22.1899 226.287 22.0834C226.134 21.9966 225.877 21.893 225.526 21.7773C225.178 21.6623 224.746 21.5374 224.251 21.406C223.261 21.1433 222.024 20.8559 220.707 20.5698C218.077 19.9986 215.136 19.4345 213.226 19.0891C211.557 19.0342 210.126 19.0257 208.991 19.0178C208.892 19.0171 208.795 19.0161 208.701 19.0154ZM214.949 19.1362C216.694 19.4657 218.814 19.885 220.763 20.3084C222.082 20.5949 223.324 20.8835 224.32 21.1478C224.817 21.2799 225.255 21.4063 225.61 21.5236C225.962 21.6401 226.242 21.7501 226.419 21.851C226.562 21.9323 226.827 22.008 227.207 22.0731C227.583 22.1374 228.056 22.1891 228.604 22.2296C229.699 22.3105 231.084 22.3464 232.565 22.3523C235.52 22.3641 238.852 22.2568 241.025 22.1539C241.826 21.9294 242.593 21.7067 243.311 21.4911C240.168 21.8789 234.768 21.9549 228.216 20.4533L228.211 20.4521L228.206 20.4506C226.932 20.0457 222.983 19.2168 217.456 19.1745C216.582 19.1678 215.745 19.154 214.949 19.1362Z" fill="white" stroke="white"/>
<path d="M218.277 17.7491C219.254 17.6232 229.362 16.6007 232.639 15.9267C233.888 15.6698 235.269 15.3699 236.755 15.0247C242.15 13.772 246.205 13.6495 247.577 13.7469C256.235 13.6551 262.393 11.4565 264.377 10.3781L264.511 10.6099C263.393 11.2908 262.04 12.0824 260.547 12.9158C259.537 13.4792 258.463 14.0618 257.354 14.6419C256.494 15.092 255.612 15.5404 254.723 15.9778L254.724 15.9779C254.722 15.9786 254.721 15.979 254.719 15.9797C251.856 17.3884 248.912 18.6803 246.348 19.518C245.065 19.937 243.874 20.2435 242.834 20.3938C241.796 20.5437 240.895 20.5398 240.2 20.3276C237.462 19.4914 232.033 18.9245 227.253 18.561C226.633 18.5139 226.025 18.4703 225.435 18.4299C222.396 18.3003 219.719 18.166 218.344 18.0209C218.327 18.0197 218.312 18.0186 218.301 18.0175C218.299 18.0173 218.295 18.016 218.29 18.0154C218.286 18.015 218.283 18.015 218.28 18.0147L218.28 18.0138C218.273 18.0126 218.264 18.0124 218.257 18.0102L218.277 17.7491ZM231.731 18.6858C235.123 19.0298 238.351 19.4832 240.279 20.0718C240.919 20.2673 241.773 20.2768 242.796 20.1291C243.816 19.9819 244.991 19.6801 246.265 19.2638C248.145 18.6495 250.235 17.7879 252.349 16.8135C252.348 16.814 252.346 16.8146 252.344 16.8151C251.158 17.1867 249.665 17.6203 248.134 18.0191C246.604 18.4177 245.034 18.7821 243.695 19.0143C243.025 19.1303 242.412 19.2136 241.888 19.2516C241.368 19.2894 240.927 19.283 240.608 19.2141C240.378 19.1644 239.922 19.1141 239.281 19.064C238.644 19.0142 237.833 18.965 236.9 18.9163C235.414 18.8387 233.621 18.7625 231.731 18.6858ZM221.025 17.894C222.237 17.9593 223.771 18.0479 225.456 18.1633C227.008 18.2295 228.655 18.2949 230.274 18.3595C232.693 18.4561 235.045 18.5518 236.914 18.6494C237.848 18.6981 238.661 18.7474 239.302 18.7975C239.939 18.8474 240.414 18.8987 240.664 18.9528C240.945 19.0135 241.355 19.0221 241.869 18.9848C242.38 18.9477 242.985 18.866 243.649 18.7508C244.978 18.5204 246.54 18.158 248.067 17.7603C249.593 17.3627 251.083 16.9303 252.264 16.56C253.451 16.1881 254.316 15.8825 254.604 15.7387L254.605 15.7384C255.115 15.4878 255.621 15.2327 256.123 14.9764C253.998 15.5347 251.165 16.2114 248.448 16.7219C246.812 17.0293 245.217 17.2768 243.842 17.4024C242.471 17.5276 241.305 17.533 240.537 17.347C239.811 17.171 238.288 17.1025 236.337 17.107C234.393 17.1114 232.042 17.1881 229.669 17.297C226.188 17.4569 222.665 17.6863 220.325 17.8576C220.544 17.869 220.778 17.8807 221.025 17.894ZM224.745 17.295C226.302 17.2003 227.984 17.107 229.657 17.0301C232.031 16.9211 234.387 16.8441 236.337 16.8396C238.28 16.8351 239.836 16.9023 240.6 17.0872C241.322 17.2621 242.45 17.261 243.817 17.1361C245.181 17.0116 246.767 16.7657 248.399 16.4592C251.654 15.8475 255.078 14.9968 257.243 14.3984C257.974 14.0157 258.689 13.6316 259.382 13.2531C257.358 13.8263 254.716 14.5369 252.31 15.1049C250.866 15.4458 249.505 15.7362 248.412 15.9148C247.866 16.0041 247.385 16.0658 246.992 16.0918C246.605 16.1175 246.289 16.1098 246.082 16.05C245.914 16.0012 245.639 15.9611 245.271 15.9305C244.905 15.9001 244.456 15.8795 243.944 15.8674C242.92 15.8432 241.65 15.8525 240.303 15.8821C237.613 15.941 234.622 16.0798 232.684 16.1902C231.057 16.5238 227.772 16.942 224.745 17.295ZM234.369 15.8336C236.143 15.7462 238.303 15.6584 240.297 15.6147C241.646 15.5852 242.921 15.5756 243.95 15.6C244.465 15.6122 244.92 15.633 245.293 15.6641C245.663 15.6949 245.961 15.7364 246.157 15.7931C246.314 15.8388 246.59 15.8505 246.975 15.8249C247.355 15.7997 247.827 15.7394 248.369 15.6508C249.453 15.4737 250.807 15.185 252.249 14.8446C255.125 14.1657 258.34 13.2827 260.429 12.6749C261.156 12.2695 261.848 11.874 262.497 11.4965C259.531 12.608 254.299 13.9437 247.577 14.0145L247.572 14.0147L247.566 14.0142C246.233 13.9181 242.2 14.0349 236.816 15.2852C235.964 15.483 235.147 15.6651 234.369 15.8336Z" fill="white" stroke="white"/>
<path d="M90.018 11.1992C105.476 6.33672 114.291 11.7511 119 17.0003L119.5 16.4996C108.5 3.49925 90.9509 10.5084 89.3517 10.5084C62.2727 21.4489 51.6384 18.9761 48.1736 17.9194C29.6501 9.76928 17.7897 11.2451 12.4592 12.7186C35.3803 9.26516 42.31 18.2441 53.6373 19.4873C67.6299 18.8863 70.6949 17.2772 90.018 11.1992Z" fill="white" stroke="white"/>
<path d="M108.002 11.2143C105.013 10.6422 101.585 11.0613 97.5302 14.3447L97.5269 14.3474L97.5238 14.3504C93.9624 17.6339 88.6977 18.9565 86.5137 19.2055L86.4957 19.4511C88.3318 19.9134 91.3992 20.3977 94.6449 20.3515C97.888 20.3053 101.328 19.7293 103.894 18.0538C108.938 14.7595 113.872 14.107 115.691 14.1893L116 14.2032L115.797 13.9816C115.136 13.2616 113.675 12.4571 111.387 12.2528C110.326 11.8318 109.201 11.4437 108.002 11.2143ZM103.235 16.6745C107.768 13.6603 112.295 13.5365 114.694 13.9559C112.37 14.1053 108.094 15.0065 103.744 17.8474C101.241 19.4819 97.8628 20.0551 94.6411 20.101C92.6802 20.1289 90.7846 19.9605 89.192 19.7219C90.6389 19.795 92.3452 19.7807 94.1325 19.5958C97.2237 19.276 100.57 18.4465 103.235 16.6745ZM103.226 15.301C107.479 12.9349 111.273 12.9302 113.66 13.4708C113.77 13.5157 113.879 13.5605 113.988 13.6038C111.407 13.3297 107.243 13.7032 103.083 16.4693C100.469 18.2077 97.172 19.0291 94.1041 19.3465C91.826 19.5822 89.6812 19.5388 88.0482 19.3906C91.732 19.1396 98.1843 18.1053 103.226 15.301ZM101.105 14.8039C105.517 12.7637 108.905 12.2902 111.322 12.4989C111.564 12.5951 111.803 12.6935 112.039 12.792C112.231 12.8719 112.421 12.9523 112.609 13.032C110.176 12.7223 106.8 13.0218 103.092 15.0845C98.8692 17.4336 93.6352 18.5312 89.9083 18.9653C90.277 18.8753 90.6733 18.7715 91.0972 18.6518C93.5063 17.9715 96.8236 16.7837 101.105 14.8039ZM97.7034 14.534C101.698 11.2998 105.045 10.904 107.95 11.4601C108.859 11.6341 109.727 11.9015 110.561 12.2073C108.159 12.1524 104.976 12.735 100.99 14.5786C96.7187 16.5535 93.4149 17.7359 91.0222 18.4116C90.7292 18.4943 90.4498 18.5691 90.1844 18.6371C92.5857 17.8872 95.4699 16.5917 97.7034 14.534ZM112.302 12.6282C113.42 12.8298 114.275 13.1827 114.875 13.5614C114.543 13.441 114.164 13.328 113.743 13.2318C113.277 13.0403 112.797 12.8355 112.302 12.6282Z" fill="white" stroke="white"/>
<path d="M92.9607 10.3468C87.4462 11.3023 81.6447 13.3618 78.2116 17.5389L78.2088 17.5423L78.2062 17.5459C75.2716 21.6276 70.2703 23.9546 68.1393 24.6055L68.1674 24.8665C70.085 25.0243 73.2346 24.9856 76.4622 24.3584C79.6872 23.7316 83.0095 22.5134 85.253 20.2974C86.3481 19.2156 88.0832 18.048 90.1076 16.8995C92.1299 15.7522 94.4327 14.6287 96.6565 13.6336C98.8801 12.6386 101.023 11.7727 102.726 11.1407C103.577 10.8247 104.318 10.5675 104.903 10.3819C105.491 10.1952 105.913 10.084 106.132 10.0555L106.442 10.015L106.198 9.81868C106.076 9.72095 105.903 9.65185 105.696 9.60289C105.487 9.55339 105.233 9.52167 104.94 9.50631C104.354 9.47557 103.601 9.50937 102.724 9.60281C102.716 9.60369 102.708 9.60449 102.699 9.60538C100.046 9.56759 96.5579 9.72348 92.9607 10.3468ZM104.629 10.1897C104.073 10.3705 103.396 10.6065 102.633 10.89C100.925 11.524 98.7762 12.3921 96.5473 13.3895C94.3185 14.3868 92.0079 15.5143 89.9759 16.6671C87.9461 17.8186 86.186 19.0002 85.0651 20.1074C82.8765 22.2693 79.615 23.4735 76.4111 24.0962C74.4612 24.4751 72.5395 24.6363 70.9068 24.6699C72.3633 24.4886 74.062 24.1694 75.8094 23.6566C78.8316 22.7696 82.0123 21.3023 84.3368 18.9671C85.4731 17.8255 87.2703 16.6766 89.3694 15.5989C91.4662 14.5223 93.8549 13.5216 96.1668 12.6742C98.4786 11.8269 100.711 11.1337 102.495 10.6716C103.314 10.4595 104.037 10.2967 104.629 10.1897ZM102.593 10.307C102.897 10.2509 103.187 10.2018 103.461 10.1593C103.137 10.2339 102.792 10.3186 102.428 10.4127C100.635 10.8773 98.3939 11.5733 96.0748 12.4233C93.7558 13.2732 91.3565 14.2781 89.2473 15.361C87.1405 16.4427 85.3136 17.6071 84.1474 18.7787C81.8669 21.0696 78.7335 22.5198 75.7341 23.4C73.5069 24.0536 71.3602 24.3905 69.7042 24.5261C73.3302 23.6057 79.5698 21.3695 84.0702 17.5269C85.3518 16.4327 87.2484 15.3726 89.4105 14.4088C91.5707 13.4457 93.988 12.582 96.3054 11.8781C98.6228 11.1741 100.838 10.6305 102.593 10.307ZM96.3075 11.1217C98.7398 10.4839 100.979 10.0604 102.713 9.87301C102.969 9.87675 103.217 9.88219 103.457 9.88929C103.169 9.93349 102.864 9.98513 102.544 10.0441C100.778 10.3697 98.5529 10.9159 96.2278 11.6222C93.9025 12.3285 91.4742 13.196 89.3015 14.1646C87.1307 15.1324 85.2069 16.2047 83.8964 17.3235C80.1266 20.5423 75.1137 22.6278 71.4791 23.748C71.8298 23.5878 72.2054 23.4082 72.6056 23.207C74.8801 22.0633 77.9649 20.2249 81.8623 17.3833C85.7354 14.5595 91.4031 12.4079 96.3075 11.1217ZM93.0062 10.61C95.7587 10.1331 98.4473 9.93148 100.742 9.88085C99.3844 10.1105 97.8533 10.4401 96.2398 10.8633C91.3217 12.153 85.617 14.3151 81.7049 17.1675C77.817 20.0021 74.7445 21.8323 72.4855 22.9682C72.2093 23.1071 71.9453 23.2353 71.6937 23.3539C73.9464 22.1388 76.5776 20.2654 78.4181 17.7088L78.5779 17.5179C81.9677 13.5437 87.5962 11.5474 93.0062 10.61Z" fill="white" stroke="white"/>
<path d="M77.807 15.1118C76.8745 15.423 74.5461 16.1109 71.2584 16.8996C70.007 17.1998 68.6169 17.5148 67.1121 17.829C61.6472 18.9698 57.8606 20.7241 56.6332 21.4701C48.6216 25.3981 42.0898 25.8574 39.8448 25.6018L39.8055 25.8579C41.1028 26.0826 42.6602 26.3192 44.3634 26.5359C45.5148 26.6824 46.7331 26.82 47.9826 26.9386C48.9521 27.0306 49.9405 27.111 50.9313 27.1757L50.9311 27.176C50.9326 27.1761 50.9342 27.1759 50.9358 27.176C54.1276 27.3843 57.3481 27.4277 60.0416 27.1504C61.3889 27.0117 62.6081 26.7924 63.6276 26.4719C64.6456 26.1519 65.4748 25.7278 66.0314 25.1728C68.2347 22.9756 71.1752 20.5496 73.5841 18.6553C74.7879 17.7085 75.8581 16.8952 76.6358 16.3104C77.0247 16.0181 77.3404 15.7828 77.5633 15.6165C77.6745 15.5335 77.7629 15.4674 77.8256 15.4201C77.8569 15.3964 77.8824 15.3769 77.9011 15.3624C77.9169 15.3501 77.9348 15.3361 77.9453 15.3259L77.807 15.1118ZM73.4151 18.4543C71.0044 20.3502 68.0541 22.7836 65.8395 24.9921C65.3255 25.5046 64.5424 25.9118 63.545 26.2254C62.5491 26.5384 61.3497 26.7549 60.0134 26.8925C57.9323 27.1067 55.5286 27.128 53.0624 27.0289C53.19 27.0148 53.3218 27.0003 53.457 26.9844C54.6958 26.8389 56.2423 26.6181 57.8096 26.3418C59.3766 26.0655 60.9671 25.7331 62.293 25.3636C62.9559 25.1789 63.5547 24.9841 64.0525 24.7818C64.5481 24.5804 64.9527 24.3678 65.2198 24.1437C66.3707 23.1783 70.5951 20.2754 74.2053 17.8371C73.9499 18.0354 73.6858 18.2415 73.4151 18.4543ZM76.7435 15.8162C72.9215 18.3716 66.5159 22.7136 65.0446 23.9478C64.8096 24.1449 64.436 24.3449 63.949 24.5428C63.4641 24.7399 62.8758 24.9314 62.2187 25.1146C60.9048 25.4808 59.3239 25.8114 57.7615 26.0869C56.1995 26.3623 54.6583 26.5821 53.4246 26.727C52.8077 26.7994 52.2685 26.8529 51.8423 26.8854C51.4666 26.914 51.1851 26.9257 51.0163 26.9206L50.951 26.9176C50.9506 26.9175 50.9502 26.9176 50.9499 26.9176C50.3055 26.8755 49.6621 26.8256 49.0241 26.7713C51.2265 26.3944 54.2125 25.7996 57.0139 25.068C58.6419 24.6428 60.2102 24.171 61.5271 23.6682C62.8402 23.1668 63.918 22.6293 64.553 22.0682C65.7686 20.9939 68.2397 19.6514 70.851 18.4055C72.9293 17.4139 75.0855 16.4893 76.7435 15.8162ZM75.3179 16.1232C73.9089 16.7161 72.2989 17.4256 70.7326 18.1729C68.125 19.417 65.6203 20.7742 64.3726 21.8768C63.7759 22.4041 62.7372 22.9275 61.4291 23.427C60.1249 23.925 58.567 24.3939 56.9441 24.8177C53.7068 25.6631 50.22 26.3261 47.9912 26.6789C47.0915 26.5934 46.2082 26.4976 45.3545 26.3962C47.472 26.0802 50.2921 25.6135 52.8195 25.0971C54.2842 24.7979 55.6532 24.4817 56.731 24.1683C57.2697 24.0116 57.7382 23.855 58.1106 23.7006C58.4788 23.5479 58.768 23.3915 58.9345 23.2303C59.0713 23.098 59.3091 22.9262 59.6358 22.7216C59.9605 22.5183 60.366 22.287 60.8329 22.0355C61.7666 21.5326 62.9406 20.9516 64.1937 20.3568C66.6953 19.1694 69.5065 17.9292 71.3353 17.1482C72.8927 16.7744 74.2357 16.4228 75.3179 16.1232ZM69.9021 17.4832C68.1831 18.2324 66.035 19.1942 64.0758 20.1242C62.8209 20.7198 61.6421 21.303 60.7027 21.809C60.233 22.062 59.8217 22.2964 59.4902 22.504C59.1608 22.7103 58.903 22.8944 58.7452 23.0471C58.6172 23.171 58.369 23.3113 58.0052 23.4622C57.6457 23.6112 57.1877 23.7648 56.6539 23.92C55.5865 24.2304 54.226 24.5449 52.7643 24.8435C49.8499 25.4389 46.5431 25.9691 44.3802 26.2765C43.4406 26.1568 42.546 26.0308 41.7154 25.9045C44.8448 25.7869 50.3352 24.8492 56.7582 21.6994L56.764 21.6966L56.7692 21.6933C57.9588 20.9684 61.7191 19.2197 67.1686 18.082C68.1284 17.8817 69.0416 17.6802 69.9021 17.4832Z" fill="white" stroke="white"/>
<path d="M59.455 18.6841C58.9802 18.7354 58.149 18.7427 57.0074 18.7506C55.8697 18.7585 54.4324 18.7669 52.7554 18.8223C51.481 18.8643 50.0678 18.8956 48.5419 18.9073C43.0025 18.9496 39.0305 19.7784 37.7198 20.1937C29.2809 22.1269 22.7799 21.428 20.5989 20.8431L20.5233 21.0994C21.7691 21.5003 23.2696 21.9541 24.9163 22.4155C26.0296 22.7274 27.2099 23.0428 28.4236 23.3477C29.3653 23.5844 30.3274 23.8146 31.2939 24.0321L31.2936 24.0323C31.2947 24.0326 31.2958 24.0326 31.2969 24.0329C34.4109 24.7336 37.5753 25.3018 40.2647 25.5172C41.6097 25.6249 42.8393 25.6447 43.8861 25.5477C44.9305 25.4509 45.8051 25.237 46.4313 24.8682C48.9056 23.4112 52.1379 21.9512 54.7739 20.8439C56.0911 20.2905 57.2581 19.8258 58.1053 19.4939C58.5288 19.328 58.8724 19.1954 59.1151 19.1014C59.2363 19.0545 59.3327 19.0171 59.4012 18.9901C59.4354 18.9766 59.4632 18.9654 59.4838 18.9569C59.5004 18.95 59.522 18.9411 59.5357 18.9333L59.455 18.6841ZM54.1689 20.8092C51.6292 21.8889 48.6305 23.263 46.2958 24.6379C45.7191 24.9775 44.89 25.1861 43.8615 25.2815C42.8353 25.3766 41.6223 25.3577 40.2862 25.2507C38.3143 25.0928 36.0815 24.7434 33.7974 24.29C33.7992 24.2902 33.801 24.2903 33.8029 24.2904C35.0426 24.3746 36.5959 24.4474 38.1775 24.4774C39.7587 24.5074 41.3705 24.4946 42.7268 24.4075C43.4048 24.364 44.0211 24.3018 44.5386 24.2165C45.0536 24.1316 45.4807 24.0224 45.7748 23.8808C46.6511 23.4589 49.1184 22.5712 51.8586 21.6129C52.6179 21.3474 53.3975 21.0766 54.1689 20.8092ZM58.0929 19.1622C56.2634 19.8041 53.9368 20.6026 51.7702 21.3603C49.0384 22.3156 46.5527 23.2096 45.6591 23.6397C45.4001 23.7644 45.0033 23.8688 44.495 23.9526C43.9893 24.036 43.3827 24.0974 42.7096 24.1407C41.3637 24.2271 39.7601 24.24 38.1826 24.2101C36.6056 24.1801 35.0568 24.1076 33.8212 24.0237C32.6577 23.9447 31.7827 23.8561 31.4195 23.7855L31.3538 23.7718L31.353 23.7717C30.799 23.647 30.2466 23.5174 29.6985 23.3855C31.895 23.4319 34.808 23.4277 37.5695 23.2892C39.2316 23.2059 40.841 23.074 42.2071 22.8749C43.5688 22.6764 44.7041 22.4093 45.4076 22.0489C46.7526 21.3599 49.3716 20.7199 52.1182 20.1836C54.2237 19.7725 56.3916 19.4244 58.0929 19.1622ZM57.299 19.0154C55.733 19.2611 53.8772 19.5679 52.067 19.9214C49.327 20.4564 46.6698 21.1016 45.2856 21.8108C44.6245 22.1494 43.5277 22.4122 42.1687 22.6103C40.8141 22.8077 39.2138 22.9391 37.5561 23.0222C34.2481 23.1881 30.7198 23.1611 28.4754 23.085C27.6753 22.8839 26.89 22.6776 26.1288 22.4714C28.2306 22.5558 30.9645 22.6295 33.4362 22.6196C34.92 22.6137 36.3115 22.5777 37.4157 22.4961C37.9676 22.4553 38.4501 22.403 38.8375 22.3367C39.2201 22.2712 39.5261 22.1899 39.713 22.0834C39.8656 21.9966 40.1235 21.893 40.474 21.7773C40.8222 21.6623 41.2541 21.5374 41.749 21.406C42.7388 21.1433 43.9763 20.8559 45.2933 20.5698C47.9227 19.9986 50.8642 19.4345 52.7741 19.0891C54.4429 19.0342 55.8737 19.0257 57.0094 19.0178C57.1081 19.0171 57.2046 19.0161 57.299 19.0154ZM51.0508 19.1362C49.3055 19.4657 47.1858 19.885 45.2366 20.3084C43.9179 20.5949 42.6759 20.8835 41.6804 21.1478C41.1828 21.2799 40.7455 21.4063 40.3903 21.5236C40.0376 21.6401 39.758 21.7501 39.5808 21.851C39.438 21.9323 39.1731 22.008 38.7926 22.0731C38.4169 22.1374 37.9436 22.1891 37.3959 22.2296C36.3007 22.3105 34.9165 22.3464 33.4352 22.3523C30.4802 22.3641 27.1477 22.2568 24.9746 22.1539C24.1735 21.9294 23.4074 21.7067 22.6887 21.4911C25.8323 21.8789 31.2315 21.9549 37.7837 20.4533L37.7892 20.4521L37.7945 20.4506C39.0681 20.0457 43.0166 19.2168 48.5442 19.1745C49.4183 19.1678 50.2554 19.154 51.0508 19.1362Z" fill="white" stroke="white"/>
<path d="M47.7227 17.7491C46.7465 17.6232 36.638 16.6007 33.361 15.9267C32.1121 15.6698 30.7309 15.3699 29.2446 15.0247C23.8503 13.772 19.7953 13.6495 18.4227 13.7469C9.76504 13.6551 3.60685 11.4565 1.62275 10.3781L1.48924 10.6099C2.6069 11.2908 3.95992 12.0824 5.45328 12.9158C6.46283 13.4792 7.53668 14.0618 8.64555 14.6419C9.50594 15.092 10.3876 15.5404 11.2766 15.9778L11.2763 15.9779C11.2776 15.9786 11.2792 15.979 11.2806 15.9797C14.1442 17.3884 17.0877 18.6803 19.652 19.518C20.9346 19.937 22.1255 20.2435 23.1661 20.3938C24.2043 20.5437 25.1046 20.5398 25.7997 20.3276C28.5379 19.4914 33.9669 18.9245 38.7474 18.561C39.3669 18.5139 39.9753 18.4703 40.565 18.4299C43.6044 18.3003 46.2815 18.166 47.6562 18.0209C47.6733 18.0197 47.6879 18.0186 47.6993 18.0175C47.7015 18.0173 47.7054 18.016 47.7105 18.0154C47.7137 18.015 47.7169 18.015 47.7201 18.0147L47.7199 18.0138C47.7272 18.0126 47.7356 18.0124 47.743 18.0102L47.7227 17.7491ZM34.2691 18.6858C30.8767 19.0298 27.649 19.4832 25.7215 20.0718C25.0814 20.2673 24.2266 20.2768 23.2043 20.1291C22.1843 19.9819 21.0091 19.6801 19.7349 19.2638C17.8546 18.6495 15.7654 17.7879 13.6505 16.8135C13.6523 16.814 13.654 16.8146 13.6558 16.8151C14.8416 17.1867 16.3348 17.6203 17.8656 18.0191C19.396 18.4177 20.9661 18.7821 22.3052 19.0143C22.9747 19.1303 23.5885 19.2136 24.1117 19.2516C24.6322 19.2894 25.073 19.283 25.3921 19.2141C25.6218 19.1644 26.0784 19.1141 26.7189 19.064C27.3562 19.0142 28.1672 18.965 29.1003 18.9163C30.586 18.8387 32.3792 18.7625 34.2691 18.6858ZM44.9747 17.894C43.7633 17.9593 42.2293 18.0479 40.5439 18.1633C38.9922 18.2295 37.3447 18.2949 35.726 18.3595C33.3073 18.4561 30.9546 18.5518 29.0865 18.6494C28.1525 18.6981 27.3387 18.7474 26.6981 18.7975C26.0605 18.8474 25.5858 18.8987 25.3355 18.9528C25.0546 19.0135 24.6446 19.0221 24.1309 18.9848C23.6197 18.9477 23.0154 18.866 22.3509 18.7508C21.022 18.5204 19.4598 18.158 17.9331 17.7603C16.4067 17.3627 14.9175 16.9303 13.7357 16.56C12.5488 16.1881 11.6836 15.8825 11.3956 15.7387L11.3949 15.7384C10.8855 15.4878 10.3787 15.2327 9.87664 14.9764C12.0015 15.5347 14.8347 16.2114 17.552 16.7219C19.1875 17.0293 20.7833 17.2768 22.1581 17.4024C23.5285 17.5276 24.6946 17.533 25.4628 17.347C26.1893 17.171 27.7124 17.1025 29.6629 17.107C31.6069 17.1114 33.9585 17.1881 36.3307 17.297C39.8122 17.4569 43.3355 17.6863 45.6747 17.8576C45.4558 17.869 45.2219 17.8807 44.9747 17.894ZM41.255 17.295C39.6985 17.2003 38.0159 17.107 36.3429 17.0301C33.969 16.9211 31.613 16.8441 29.6635 16.8396C27.7204 16.8351 26.1636 16.9023 25.3999 17.0872C24.678 17.2621 23.5502 17.261 22.1826 17.1361C20.8193 17.0116 19.2326 16.7657 17.6013 16.4592C14.3462 15.8475 10.9219 14.9968 8.7574 14.3984C8.02623 14.0157 7.31061 13.6316 6.61844 13.2531C8.64244 13.8263 11.2837 14.5369 13.6896 15.1049C15.1337 15.4458 16.495 15.7362 17.5877 15.9148C18.1339 16.0041 18.6153 16.0658 19.0076 16.0918C19.3948 16.1175 19.7111 16.1098 19.9178 16.05C20.0864 16.0012 20.3615 15.9611 20.7294 15.9305C21.0948 15.9001 21.5439 15.8795 22.0558 15.8674C23.0796 15.8432 24.3499 15.8525 25.6973 15.8821C28.3869 15.941 31.3784 16.0798 33.3162 16.1902C34.9427 16.5238 38.228 16.942 41.255 17.295ZM31.6308 15.8336C29.8568 15.7462 27.6975 15.6584 25.7032 15.6147C24.3541 15.5852 23.0792 15.5756 22.0495 15.6C21.5348 15.6122 21.0801 15.633 20.7074 15.6641C20.3371 15.6949 20.0394 15.7364 19.8435 15.7931C19.6856 15.8388 19.4104 15.8505 19.0252 15.8249C18.6449 15.7997 18.1728 15.7394 17.6308 15.6508C16.5471 15.4737 15.1926 15.185 13.7509 14.8446C10.8749 14.1657 7.65972 13.2827 5.57079 12.6749C4.84446 12.2695 4.15164 11.874 3.50326 11.4965C6.46933 12.608 11.7012 13.9437 18.4229 14.0145L18.4285 14.0147L18.4341 14.0142C19.7671 13.9181 23.7998 14.0349 29.184 15.2852C30.0357 15.483 30.8532 15.6651 31.6308 15.8336Z" fill="white" stroke="white"/>
<path d="M128.979 11.5118L128.374 12.4544V12.6046L128.554 12.7696L128.521 12.8795C128.468 13.0589 128.419 13.2689 128.38 13.5035C128.838 14.5349 130.437 16.5337 133.348 16.5697C136.338 16.6067 137.932 15.1661 138.343 14.485L138.344 14.4821L138.346 14.4791C138.437 14.3408 138.617 14.1519 138.866 14.1028C138.997 14.077 139.139 14.0926 139.279 14.165C139.416 14.2355 139.541 14.3549 139.656 14.5236C139.802 14.7369 139.807 15.0277 139.753 15.3177C139.697 15.6159 139.57 15.9548 139.397 16.3004C139.17 16.755 138.857 17.234 138.503 17.6652C138.873 17.4949 139.167 17.3233 139.369 17.1797C139.522 17.0328 139.76 16.8329 139.993 16.6983C140.112 16.6299 140.246 16.5689 140.376 16.5491C140.495 16.5311 140.635 16.5461 140.742 16.6447L140.785 16.6925L140.829 16.7516C141.024 17.0378 141.02 17.3194 140.973 17.4678L140.973 17.4682C140.67 18.592 139.463 20.7676 136.901 21.7056C137.484 21.6568 137.938 21.5391 138.225 21.4164L138.228 21.4149L138.298 21.3888C138.471 21.3291 138.713 21.2819 138.937 21.3285C139.071 21.3563 139.205 21.4189 139.308 21.5373C139.411 21.6553 139.469 21.8121 139.481 22.0029C139.491 22.161 139.423 22.3224 139.326 22.4703C139.226 22.6221 139.08 22.7817 138.9 22.9421C138.541 23.2634 138.025 23.6054 137.4 23.9159C136.149 24.5372 134.438 25.0447 132.616 24.9963C129.684 24.9184 127.372 22.959 126.579 21.9889L126.577 21.9863L126.574 21.9834C125.885 21.0759 125.108 19.5072 125.01 17.7339C124.913 15.9657 125.492 14.0004 127.484 12.3018L127.781 10.9995L128.979 11.5118ZM127.852 12.4415L127.839 12.5025L127.79 12.5433C125.855 14.1689 125.308 16.0368 125.4 17.714C125.493 19.3997 126.235 20.8988 126.888 21.7596C127.647 22.685 129.859 24.5468 132.627 24.6204C134.37 24.6667 136.017 24.1797 137.221 23.5815C137.823 23.2825 138.308 22.9586 138.636 22.6658C138.8 22.5192 138.92 22.3844 138.996 22.2685C139.075 22.1488 139.094 22.069 139.091 22.026C139.083 21.8949 139.046 21.8214 139.01 21.7794C138.974 21.7378 138.923 21.7105 138.855 21.6964C138.71 21.6663 138.52 21.7048 138.383 21.76L138.384 21.7603C137.824 21.9997 136.789 22.2005 135.474 22.0594C134.185 21.9213 132.622 21.4546 130.962 20.3705C128.522 18.7766 127.888 16.385 127.9 14.5784C127.902 14.1881 127.935 13.8239 127.986 13.4991C128.021 13.2753 128.065 13.0696 128.115 12.8865L128.044 12.8218L127.983 12.7663V12.3478L128.012 12.3022L128.411 11.6804L128.059 11.5301L127.852 12.4415ZM126.392 15.8135C126.499 15.825 126.576 15.9178 126.564 16.0211C126.414 17.3174 126.837 20.414 129.736 22.3328C132.637 24.253 135.711 23.5612 136.872 22.9836C136.968 22.9362 137.085 22.9723 137.135 23.0645C137.184 23.1568 137.147 23.2704 137.051 23.3181C135.801 23.9402 132.566 24.6626 129.515 22.643C126.462 20.6219 126.016 17.3667 126.177 15.9795C126.188 15.8763 126.285 15.802 126.392 15.8135ZM128.331 15.3982C128.501 16.9725 129.231 18.7856 131.181 20.0593C132.777 21.1013 134.269 21.547 135.49 21.682C138.786 21.1579 140.268 18.5877 140.596 17.3738L140.598 17.366L140.601 17.3587C140.614 17.3225 140.64 17.1334 140.474 16.9196C140.47 16.9187 140.458 16.9174 140.436 16.9207C140.379 16.9293 140.297 16.9619 140.194 17.0213C139.991 17.1381 139.772 17.3229 139.631 17.459L139.621 17.4689L139.609 17.4774C139.256 17.73 138.651 18.0566 137.863 18.327C137.859 18.3288 137.854 18.3303 137.85 18.3318C136.644 18.7438 135.014 19.0219 133.206 18.6952C131.318 18.3539 129.995 17.3542 129.147 16.4393C128.797 16.062 128.528 15.6979 128.331 15.3982ZM128.305 14.1778C128.297 14.2979 128.292 14.4215 128.291 14.5482C128.291 14.5488 128.291 14.5494 128.291 14.5501C128.301 14.573 128.318 14.6075 128.34 14.6522C128.386 14.7416 128.456 14.8694 128.551 15.0245C128.742 15.3348 129.034 15.7524 129.438 16.1886C130.247 17.0614 131.498 18.0034 133.277 18.3252C134.991 18.6349 136.537 18.3754 137.682 17.9904C138.221 17.4771 138.725 16.7799 139.046 16.1372C139.209 15.8099 139.321 15.5044 139.369 15.2508C139.418 14.9892 139.391 14.8203 139.33 14.7305C139.238 14.5961 139.157 14.5286 139.095 14.4964C139.036 14.4661 138.987 14.463 138.944 14.4714C138.845 14.4911 138.741 14.5817 138.676 14.6802C138.187 15.4843 136.461 16.9846 133.343 16.946C130.67 16.9129 129.03 15.3336 128.305 14.1778Z" fill="white" stroke="white" stroke-width="0.5" stroke-linecap="round"/>
<path d="M146.417 17.9995C146.417 10.5897 140.41 4.58285 133 4.58285C125.59 4.58285 119.583 10.5897 119.583 17.9995C119.583 25.4093 125.59 31.4162 133 31.4162V31.9995C125.268 31.9995 119 25.7315 119 17.9995C119 10.2675 125.268 3.99951 133 3.99951C140.732 3.99951 147 10.2675 147 17.9995C147 25.7315 140.732 31.9995 133 31.9995V31.4162C140.41 31.4162 146.417 25.4093 146.417 17.9995Z" fill="white"/>
<path d="M133 31.4162C125.59 31.4162 119.583 25.4093 119.583 17.9995C119.583 10.5897 125.59 4.58285 133 4.58285C140.41 4.58285 146.417 10.5897 146.417 17.9995C146.417 25.4093 140.41 31.4162 133 31.4162ZM133 31.4162V31.9995M133 31.4162V31.9995M133 31.9995C125.268 31.9995 119 25.7315 119 17.9995C119 10.2675 125.268 3.99951 133 3.99951C140.732 3.99951 147 10.2675 147 17.9995C147 25.7315 140.732 31.9995 133 31.9995Z" stroke="white" stroke-width="0.25"/>
<path d="M133 29.4995C126.649 29.4995 121.5 24.3508 121.5 17.9995C121.5 11.6482 126.649 6.49951 133 6.49951C139.351 6.49951 144.5 11.6482 144.5 17.9995C144.5 24.3508 139.351 29.4995 133 29.4995ZM133 29.4995V29.9995M133 29.4995V29.9995M133 29.9995C126.373 29.9995 121 24.6269 121 17.9995C121 11.3721 126.373 5.99951 133 5.99951C139.627 5.99951 145 11.3721 145 17.9995C145 24.6269 139.627 29.9995 133 29.9995Z" stroke="white" stroke-width="0.25" stroke-dasharray="0.5 0.5"/>
</svg>
